<svg version="1.2" baseProfile="tiny-ps" xmlns="http://www.w3.org/2000/svg" viewBox="0 0 1500 1000" width="1500" height="1000">
	<title>aboutme-svg</title>
	<style>
		tspan { white-space:pre }
		.shp0 { fill: #314584 } 
		.shp1 { fill: #fbb9bd } 
		.shp2 { fill: #263238 } 
		.shp3 { fill: #e0e0e0 } 
		.shp4 { fill: #ff3946 } 
		.shp5 { fill: #fafafa } 
		.shp6 { fill: #455a64 } 
		.shp7 { fill: #ff725e } 
		.shp8 { fill: #ffffff } 
		.shp9 { fill: #27debf } 
		.shp10 { fill: #000000 } 
		.shp11 { fill: #f5f5f5 } 
		.shp12 { opacity: 0.102;fill: #000000 } 
		.shp13 { opacity: 0.302;fill: #000000 } 
		.shp14 { fill: #804000 } 
		.shp15 { fill: #ffbe9d } 
		.shp16 { fill: #eb996e } 
	</style>
	<g id="Device">
		<g id="&lt;Group&gt;">
			<g id="&lt;Group&gt;">
				<g id="&lt;Group&gt;">
					<g id="&lt;Group&gt;">
						<g id="&lt;Group&gt;">
							<g id="&lt;Group&gt;">
								<g id="&lt;Group&gt;">
									<path id="&lt;Path&gt;" class="shp0" d="M1224.4 903.04L231.92 903.04C215.83 903.04 202.78 890 202.78 873.91L202.78 223.69C202.78 215.13 209.72 208.19 218.29 208.19L1240.06 208.19C1247.5 208.19 1253.54 214.22 1253.54 221.67L1253.54 873.91C1253.54 890 1240.49 903.04 1224.4 903.04Z" />
								</g>
							</g>
						</g>
					</g>
					<g id="&lt;Group&gt;">
						<g id="&lt;Group&gt;">
							<g id="&lt;Group&gt;">
								<g id="&lt;Group&gt;">
									<path id="&lt;Path&gt;" class="shp0" d="M1269.81 912.45L186.29 912.45C171.13 912.45 158.84 900.16 158.84 885.01L158.84 851.65L1297.26 851.65L1297.26 885.01C1297.26 900.16 1284.97 912.45 1269.81 912.45Z" />
								</g>
							</g>
						</g>
					</g>
					<g id="&lt;Group&gt;">
						<g id="&lt;Group&gt;">
							<g id="&lt;Group&gt;">
								<g id="&lt;Group&gt;">
									<path id="&lt;Path&gt;" class="shp1" d="M1222.39 822.59L230.99 822.59L230.99 235.8L1222.39 235.8L1222.39 822.59Z" />
								</g>
							</g>
						</g>
					</g>
					<g id="&lt;Group&gt;">
						<g id="&lt;Group&gt;">
							<g id="&lt;Group&gt;">
								<g id="&lt;Group&gt;">
									<path id="&lt;Path&gt;" class="shp2" d="M624.58 851.65L638.71 874.12L837.49 874.12L850.6 851.65L624.58 851.65Z" />
								</g>
							</g>
						</g>
					</g>
				</g>
				<g id="&lt;Group&gt;">
					<g id="&lt;Group&gt;">
						<g id="&lt;Group&gt;">
							<path id="&lt;Path&gt;" class="shp2" d="M1195.37 822.59L260.4 822.59L260.4 269.79L1195.37 269.79L1195.37 822.59Z" />
						</g>
					</g>
					<g id="&lt;Group&gt;">
						<g id="&lt;Group&gt;">
							<g id="&lt;Group&gt;">
								<path id="&lt;Path&gt;" class="shp3" d="M332.14 806.37C331.65 806.37 331.26 688.63 331.26 543.43C331.26 398.18 331.65 280.47 332.14 280.47C332.62 280.47 333.02 398.18 333.02 543.43C333.02 688.63 332.62 806.37 332.14 806.37Z" />
							</g>
						</g>
					</g>
					<g id="&lt;Group&gt;">
						<g id="&lt;Group&gt;">
							<g id="&lt;Group&gt;">
								<path id="&lt;Path&gt;" class="shp3" d="M313.28 328.14C313.28 328.62 306.48 329.02 298.09 329.02C289.7 329.02 282.9 328.62 282.9 328.14C282.9 327.65 289.7 327.26 298.09 327.26C306.48 327.26 313.28 327.65 313.28 328.14Z" />
							</g>
						</g>
					</g>
					<g id="&lt;Group&gt;">
						<g id="&lt;Group&gt;">
							<g id="&lt;Group&gt;">
								<path id="&lt;Path&gt;" class="shp3" d="M314.45 298.3C314.45 298.78 307.65 299.17 299.26 299.17C290.87 299.17 284.07 298.78 284.07 298.3C284.07 297.81 290.87 297.42 299.26 297.42C307.65 297.42 314.45 297.81 314.45 298.3Z" />
							</g>
						</g>
					</g>
					<g id="&lt;Group&gt;">
						<g id="&lt;Group&gt;">
							<g id="&lt;Group&gt;">
								<path id="&lt;Path&gt;" class="shp3" d="M313.28 360.3C313.28 360.79 306.48 361.18 298.09 361.18C289.7 361.18 282.9 360.79 282.9 360.3C282.9 359.82 289.7 359.43 298.09 359.43C306.48 359.43 313.28 359.82 313.28 360.3Z" />
							</g>
						</g>
					</g>
					<g id="&lt;Group&gt;">
						<g id="&lt;Group&gt;">
							<g id="&lt;Group&gt;">
								<path id="&lt;Path&gt;" class="shp3" d="M313.28 392.47C313.28 392.95 306.48 393.35 298.09 393.35C289.7 393.35 282.9 392.95 282.9 392.47C282.9 391.98 289.7 391.59 298.09 391.59C306.48 391.59 313.28 391.98 313.28 392.47Z" />
							</g>
						</g>
					</g>
					<g id="&lt;Group&gt;">
						<g id="&lt;Group&gt;">
							<g id="&lt;Group&gt;">
								<path id="&lt;Path&gt;" class="shp3" d="M313.28 424.63C313.28 425.12 306.48 425.51 298.09 425.51C289.7 425.51 282.9 425.12 282.9 424.63C282.9 424.15 289.7 423.76 298.09 423.76C306.48 423.76 313.28 424.15 313.28 424.63Z" />
							</g>
						</g>
					</g>
					<g id="&lt;Group&gt;">
						<g id="&lt;Group&gt;">
							<g id="&lt;Group&gt;">
								<path id="&lt;Path&gt;" class="shp3" d="M313.28 456.8C313.28 457.28 306.48 457.67 298.09 457.67C289.7 457.67 282.9 457.28 282.9 456.8C282.9 456.31 289.7 455.92 298.09 455.92C306.48 455.92 313.28 456.31 313.28 456.8Z" />
							</g>
						</g>
					</g>
					<g id="&lt;Group&gt;">
						<g id="&lt;Group&gt;">
							<g id="&lt;Group&gt;">
								<path id="&lt;Path&gt;" class="shp3" d="M313.28 488.96C313.28 489.45 306.48 489.84 298.09 489.84C289.7 489.84 282.9 489.45 282.9 488.96C282.9 488.48 289.7 488.09 298.09 488.09C306.48 488.09 313.28 488.48 313.28 488.96Z" />
							</g>
						</g>
					</g>
					<g id="&lt;Group&gt;">
						<g id="&lt;Group&gt;">
							<g id="&lt;Group&gt;">
								<path id="&lt;Path&gt;" class="shp3" d="M313.28 521.13C313.28 521.61 306.48 522 298.09 522C289.7 522 282.9 521.61 282.9 521.13C282.9 520.64 289.7 520.25 298.09 520.25C306.48 520.25 313.28 520.64 313.28 521.13Z" />
							</g>
						</g>
					</g>
					<g id="&lt;Group&gt;">
						<g id="&lt;Group&gt;">
							<g id="&lt;Group&gt;">
								<path id="&lt;Path&gt;" class="shp3" d="M313.28 553.29C313.28 553.78 306.48 554.17 298.09 554.17C289.7 554.17 282.9 553.78 282.9 553.29C282.9 552.81 289.7 552.42 298.09 552.42C306.48 552.42 313.28 552.81 313.28 553.29Z" />
							</g>
						</g>
					</g>
					<g id="&lt;Group&gt;">
						<g id="&lt;Group&gt;">
							<g id="&lt;Group&gt;">
								<path id="&lt;Path&gt;" class="shp3" d="M313.28 585.46C313.28 585.94 306.48 586.33 298.09 586.33C289.7 586.33 282.9 585.94 282.9 585.46C282.9 584.97 289.7 584.58 298.09 584.58C306.48 584.58 313.28 584.97 313.28 585.46Z" />
							</g>
						</g>
					</g>
					<g id="&lt;Group&gt;">
						<g id="&lt;Group&gt;">
							<g id="&lt;Group&gt;">
								<path id="&lt;Path&gt;" class="shp3" d="M313.28 617.62C313.28 618.11 306.48 618.5 298.09 618.5C289.7 618.5 282.9 618.11 282.9 617.62C282.9 617.14 289.7 616.74 298.09 616.74C306.48 616.74 313.28 617.14 313.28 617.62Z" />
							</g>
						</g>
					</g>
					<g id="&lt;Group&gt;">
						<g id="&lt;Group&gt;">
							<g id="&lt;Group&gt;">
								<path id="&lt;Path&gt;" class="shp3" d="M313.28 649.79C313.28 650.27 306.48 650.66 298.09 650.66C289.7 650.66 282.9 650.27 282.9 649.79C282.9 649.3 289.7 648.91 298.09 648.91C306.48 648.91 313.28 649.3 313.28 649.79Z" />
							</g>
						</g>
					</g>
					<g id="&lt;Group&gt;">
						<g id="&lt;Group&gt;">
							<g id="&lt;Group&gt;">
								<path id="&lt;Path&gt;" class="shp3" d="M313.28 681.95C313.28 682.44 306.48 682.83 298.09 682.83C289.7 682.83 282.9 682.44 282.9 681.95C282.9 681.47 289.7 681.07 298.09 681.07C306.48 681.07 313.28 681.47 313.28 681.95Z" />
							</g>
						</g>
					</g>
					<g id="&lt;Group&gt;">
						<g id="&lt;Group&gt;">
							<g id="&lt;Group&gt;">
								<path id="&lt;Path&gt;" class="shp3" d="M313.28 714.12C313.28 714.6 306.48 714.99 298.09 714.99C289.7 714.99 282.9 714.6 282.9 714.12C282.9 713.63 289.7 713.24 298.09 713.24C306.48 713.24 313.28 713.63 313.28 714.12Z" />
							</g>
						</g>
					</g>
					<g id="&lt;Group&gt;">
						<g id="&lt;Group&gt;">
							<g id="&lt;Group&gt;">
								<path id="&lt;Path&gt;" class="shp3" d="M313.28 746.28C313.28 746.77 306.48 747.16 298.09 747.16C289.7 747.16 282.9 746.77 282.9 746.28C282.9 745.8 289.7 745.4 298.09 745.4C306.48 745.4 313.28 745.8 313.28 746.28Z" />
							</g>
						</g>
					</g>
					<g id="&lt;Group&gt;">
						<g id="&lt;Group&gt;">
							<g id="&lt;Group&gt;">
								<path id="&lt;Path&gt;" class="shp3" d="M313.28 778.45C313.28 778.93 306.48 779.32 298.09 779.32C289.7 779.32 282.9 778.93 282.9 778.45C282.9 777.96 289.7 777.57 298.09 777.57C306.48 777.57 313.28 777.96 313.28 778.45Z" />
							</g>
						</g>
					</g>
					<g id="&lt;Group&gt;">
						<g id="&lt;Group&gt;">
							<g id="&lt;Group&gt;">
								<path id="&lt;Path&gt;" class="shp4" d="M435.03 326.24C435.03 326.73 417.38 327.12 395.61 327.12C373.84 327.12 356.2 326.73 356.2 326.24C356.2 325.76 373.84 325.36 395.61 325.36C417.38 325.36 435.03 325.76 435.03 326.24Z" />
							</g>
						</g>
					</g>
					<g id="&lt;Group&gt;">
						<g id="&lt;Group&gt;">
							<g id="&lt;Group&gt;">
								<path id="&lt;Path&gt;" class="shp4" d="M435.03 778.45C435.03 778.93 417.38 779.32 395.61 779.32C373.84 779.32 356.2 778.93 356.2 778.45C356.2 777.96 373.84 777.57 395.61 777.57C417.38 777.57 435.03 777.96 435.03 778.45Z" />
							</g>
						</g>
					</g>
					<g id="&lt;Group&gt;">
						<g id="&lt;Group&gt;">
							<g id="&lt;Group&gt;">
								<path id="&lt;Path&gt;" class="shp4" d="M544.81 392.47C544.81 392.95 511.79 393.35 471.07 393.35C430.33 393.35 397.32 392.95 397.32 392.47C397.32 391.98 430.33 391.59 471.07 391.59C511.79 391.59 544.81 391.98 544.81 392.47Z" />
							</g>
						</g>
					</g>
					<g id="&lt;Group&gt;">
						<g id="&lt;Group&gt;">
							<g id="&lt;Group&gt;">
								<path id="&lt;Path&gt;" class="shp3" d="M715.35 392.47C715.35 392.95 682.33 393.35 641.61 393.35C600.87 393.35 567.86 392.95 567.86 392.47C567.86 391.98 600.87 391.59 641.61 391.59C682.33 391.59 715.35 391.98 715.35 392.47Z" />
							</g>
						</g>
					</g>
					<g id="&lt;Group&gt;">
						<g id="&lt;Group&gt;">
							<g id="&lt;Group&gt;">
								<path id="&lt;Path&gt;" class="shp3" d="M650.17 424.63C650.17 425.12 601.51 425.51 541.5 425.51C481.46 425.51 432.81 425.12 432.81 424.63C432.81 424.15 481.46 423.76 541.5 423.76C601.51 423.76 650.17 424.15 650.17 424.63Z" />
							</g>
						</g>
					</g>
					<g id="&lt;Group&gt;">
						<g id="&lt;Group&gt;">
							<g id="&lt;Group&gt;">
								<path id="&lt;Path&gt;" class="shp3" d="M650.17 456.8C650.17 457.28 601.51 457.67 541.5 457.67C481.46 457.67 432.81 457.28 432.81 456.8C432.81 456.31 481.46 455.92 541.5 455.92C601.51 455.92 650.17 456.31 650.17 456.8Z" />
							</g>
						</g>
					</g>
					<g id="&lt;Group&gt;">
						<g id="&lt;Group&gt;">
							<g id="&lt;Group&gt;">
								<path id="&lt;Path&gt;" class="shp3" d="M799.79 553.29C799.79 553.78 751.13 554.17 691.12 554.17C631.08 554.17 582.43 553.78 582.43 553.29C582.43 552.81 631.08 552.42 691.12 552.42C751.13 552.42 799.79 552.81 799.79 553.29Z" />
							</g>
						</g>
					</g>
					<g id="&lt;Group&gt;">
						<g id="&lt;Group&gt;">
							<g id="&lt;Group&gt;">
								<path id="&lt;Path&gt;" class="shp3" d="M735.23 488.96C735.23 489.45 686.57 489.84 626.55 489.84C566.52 489.84 517.87 489.45 517.87 488.96C517.87 488.48 566.52 488.09 626.55 488.09C686.57 488.09 735.23 488.48 735.23 488.96Z" />
							</g>
						</g>
					</g>
					<g id="&lt;Group&gt;">
						<g id="&lt;Group&gt;">
							<g id="&lt;Group&gt;">
								<path id="&lt;Path&gt;" class="shp3" d="M1000.85 488.96C1000.85 489.45 952.18 489.84 892.17 489.84C832.14 489.84 783.49 489.45 783.49 488.96C783.49 488.48 832.14 488.09 892.17 488.09C952.18 488.09 1000.85 488.48 1000.85 488.96Z" />
							</g>
						</g>
					</g>
					<g id="&lt;Group&gt;">
						<g id="&lt;Group&gt;">
							<g id="&lt;Group&gt;">
								<path id="&lt;Path&gt;" class="shp5" d="M908.47 424.63C908.47 425.12 859.81 425.51 799.8 425.51C739.76 425.51 691.11 425.12 691.11 424.63C691.11 424.15 739.76 423.76 799.8 423.76C859.81 423.76 908.47 424.15 908.47 424.63Z" />
							</g>
						</g>
					</g>
					<g id="&lt;Group&gt;">
						<g id="&lt;Group&gt;">
							<g id="&lt;Group&gt;">
								<path id="&lt;Path&gt;" class="shp5" d="M1058.62 553.29C1058.62 553.78 1009.95 554.17 949.94 554.17C889.91 554.17 841.25 553.78 841.25 553.29C841.25 552.81 889.91 552.42 949.94 552.42C1009.95 552.42 1058.62 552.81 1058.62 553.29Z" />
							</g>
						</g>
					</g>
					<g id="&lt;Group&gt;">
						<g id="&lt;Group&gt;">
							<g id="&lt;Group&gt;">
								<path id="&lt;Path&gt;" class="shp6" d="M1028.63 456.8C1028.63 457.28 953.07 457.67 859.88 457.67C766.66 457.67 691.11 457.28 691.11 456.8C691.11 456.31 766.66 455.92 859.88 455.92C953.07 455.92 1028.63 456.31 1028.63 456.8Z" />
							</g>
						</g>
					</g>
					<g id="&lt;Group&gt;">
						<g id="&lt;Group&gt;">
							<g id="&lt;Group&gt;">
								<path id="&lt;Path&gt;" class="shp5" d="M435.03 360.3C435.03 360.79 417.38 361.18 395.61 361.18C373.84 361.18 356.2 360.79 356.2 360.3C356.2 359.82 373.84 359.43 395.61 359.43C417.38 359.43 435.03 359.82 435.03 360.3Z" />
							</g>
						</g>
					</g>
					<g id="&lt;Group&gt;">
						<g id="&lt;Group&gt;">
							<g id="&lt;Group&gt;">
								<path id="&lt;Path&gt;" class="shp5" d="M435.03 746.28C435.03 746.77 417.38 747.16 395.61 747.16C373.84 747.16 356.2 746.77 356.2 746.28C356.2 745.8 373.84 745.4 395.61 745.4C417.38 745.4 435.03 745.8 435.03 746.28Z" />
							</g>
						</g>
					</g>
					<g id="&lt;Group&gt;">
						<g id="&lt;Group&gt;">
							<g id="&lt;Group&gt;">
								<path id="&lt;Path&gt;" class="shp5" d="M474.08 488.96C474.08 489.45 456.43 489.84 434.67 489.84C412.89 489.84 395.25 489.45 395.25 488.96C395.25 488.48 412.89 488.09 434.67 488.09C456.43 488.09 474.08 488.48 474.08 488.96Z" />
							</g>
						</g>
					</g>
					<g id="&lt;Group&gt;">
						<g id="&lt;Group&gt;">
							<g id="&lt;Group&gt;">
								<path id="&lt;Path&gt;" class="shp7" d="M1105.87 488.96C1105.87 489.45 1088.22 489.84 1066.45 489.84C1044.68 489.84 1027.04 489.45 1027.04 488.96C1027.04 488.48 1044.68 488.09 1066.45 488.09C1088.22 488.09 1105.87 488.48 1105.87 488.96Z" />
							</g>
						</g>
					</g>
					<g id="&lt;Group&gt;">
						<g id="&lt;Group&gt;">
							<g id="&lt;Group&gt;">
								<path id="&lt;Path&gt;" class="shp4" d="M544.81 617.43C544.81 617.92 511.79 618.31 471.07 618.31C430.33 618.31 397.32 617.92 397.32 617.43C397.32 616.95 430.33 616.56 471.07 616.56C511.79 616.56 544.81 616.95 544.81 617.43Z" />
							</g>
						</g>
					</g>
					<g id="&lt;Group&gt;">
						<g id="&lt;Group&gt;">
							<g id="&lt;Group&gt;">
								<path id="&lt;Path&gt;" class="shp3" d="M715.35 617.43C715.35 617.92 682.33 618.31 641.61 618.31C600.87 618.31 567.86 617.92 567.86 617.43C567.86 616.95 600.87 616.56 641.61 616.56C682.33 616.56 715.35 616.95 715.35 617.43Z" />
							</g>
						</g>
					</g>
					<g id="&lt;Group&gt;">
						<g id="&lt;Group&gt;">
							<g id="&lt;Group&gt;">
								<path id="&lt;Path&gt;" class="shp3" d="M650.17 649.6C650.17 650.08 601.51 650.48 541.5 650.48C481.46 650.48 432.81 650.08 432.81 649.6C432.81 649.11 481.46 648.72 541.5 648.72C601.51 648.72 650.17 649.11 650.17 649.6Z" />
							</g>
						</g>
					</g>
					<g id="&lt;Group&gt;">
						<g id="&lt;Group&gt;">
							<g id="&lt;Group&gt;">
								<path id="&lt;Path&gt;" class="shp3" d="M650.17 681.76C650.17 682.25 601.51 682.64 541.5 682.64C481.46 682.64 432.81 682.25 432.81 681.76C432.81 681.28 481.46 680.89 541.5 680.89C601.51 680.89 650.17 681.28 650.17 681.76Z" />
							</g>
						</g>
					</g>
					<g id="&lt;Group&gt;">
						<g id="&lt;Group&gt;">
							<g id="&lt;Group&gt;">
								<path id="&lt;Path&gt;" class="shp3" d="M735.23 713.93C735.23 714.41 686.57 714.8 626.55 714.8C566.52 714.8 517.87 714.41 517.87 713.93C517.87 713.44 566.52 713.05 626.55 713.05C686.57 713.05 735.23 713.44 735.23 713.93Z" />
							</g>
						</g>
					</g>
					<g id="&lt;Group&gt;">
						<g id="&lt;Group&gt;">
							<g id="&lt;Group&gt;">
								<path id="&lt;Path&gt;" class="shp3" d="M1000.85 713.93C1000.85 714.41 952.18 714.8 892.17 714.8C832.14 714.8 783.49 714.41 783.49 713.93C783.49 713.44 832.14 713.05 892.17 713.05C952.18 713.05 1000.85 713.44 1000.85 713.93Z" />
							</g>
						</g>
					</g>
					<g id="&lt;Group&gt;">
						<g id="&lt;Group&gt;">
							<g id="&lt;Group&gt;">
								<path id="&lt;Path&gt;" class="shp5" d="M908.47 649.6C908.47 650.08 859.81 650.48 799.8 650.48C739.76 650.48 691.11 650.08 691.11 649.6C691.11 649.11 739.76 648.72 799.8 648.72C859.81 648.72 908.47 649.11 908.47 649.6Z" />
							</g>
						</g>
					</g>
					<g id="&lt;Group&gt;">
						<g id="&lt;Group&gt;">
							<g id="&lt;Group&gt;">
								<path id="&lt;Path&gt;" class="shp6" d="M1028.63 681.76C1028.63 682.25 953.07 682.64 859.88 682.64C766.66 682.64 691.11 682.25 691.11 681.76C691.11 681.28 766.66 680.89 859.88 680.89C953.07 680.89 1028.63 681.28 1028.63 681.76Z" />
							</g>
						</g>
					</g>
					<g id="&lt;Group&gt;">
						<g id="&lt;Group&gt;">
							<g id="&lt;Group&gt;">
								<path id="&lt;Path&gt;" class="shp5" d="M474.08 713.93C474.08 714.41 456.43 714.8 434.67 714.8C412.89 714.8 395.25 714.41 395.25 713.93C395.25 713.44 412.89 713.05 434.67 713.05C456.43 713.05 474.08 713.44 474.08 713.93Z" />
							</g>
						</g>
					</g>
					<g id="&lt;Group&gt;">
						<g id="&lt;Group&gt;">
							<g id="&lt;Group&gt;">
								<path id="&lt;Path&gt;" class="shp7" d="M1105.87 713.93C1105.87 714.41 1088.22 714.8 1066.45 714.8C1044.68 714.8 1027.04 714.41 1027.04 713.93C1027.04 713.44 1044.68 713.05 1066.45 713.05C1088.22 713.05 1105.87 713.44 1105.87 713.93Z" />
							</g>
						</g>
					</g>
				</g>
			</g>
			<g id="&lt;Group&gt;">
				<path id="&lt;Path&gt;" class="shp2" d="M1126.87 871.96C1126.87 872.25 925.59 872.48 677.36 872.48C429.04 872.48 227.8 872.25 227.8 871.96C227.8 871.67 429.04 871.44 677.36 871.44C925.59 871.44 1126.87 871.67 1126.87 871.96Z" />
			</g>
		</g>
	</g>
	<g id="Plant">
		<g id="Pot 1 ">
			<g id="&lt;Group&gt;">
				<g id="&lt;Group&gt;">
					<g id="&lt;Group&gt;">
						<g id="&lt;Group&gt;">
							<path id="&lt;Path&gt;" class="shp4" d="M172.1 916.54C140.96 884.41 122.67 753.67 153.04 728.19L307.55 728.19C337.91 753.66 319.64 884.36 288.53 916.5C288.26 916.8 287.95 917.09 287.67 917.39C287.32 917.75 286.96 918.11 286.6 918.45C285.72 919.31 284.79 920.15 283.79 920.98C283.54 921.19 283.29 921.37 283.04 921.57C282.28 922.17 281.53 922.78 280.69 923.37C279.37 924.32 278.03 925.2 276.67 925.97C251.06 940.92 209.54 940.92 183.93 925.97L183.93 925.97L183.92 925.97C182.56 925.2 181.21 924.31 179.87 923.35C179.1 922.8 178.4 922.24 177.68 921.67C177.38 921.43 177.07 921.2 176.77 920.94C175.8 920.15 174.9 919.33 174.05 918.5C173.63 918.11 173.22 917.69 172.81 917.28C172.58 917.03 172.32 916.79 172.1 916.54Z" />
						</g>
						<g id="&lt;Group&gt;" style="opacity: 0.502">
							<path id="&lt;Path&gt;" class="shp8" d="M170.1 913.54C138.96 881.41 120.67 750.67 151.04 725.19L305.55 725.19C335.91 750.66 317.64 881.36 286.53 913.5C286.26 913.8 285.95 914.09 285.67 914.39C285.32 914.75 284.96 915.11 284.6 915.45C283.72 916.31 282.79 917.15 281.79 917.98C281.54 918.19 281.29 918.37 281.04 918.57C280.28 919.17 279.53 919.78 278.69 920.37C277.37 921.32 276.03 922.2 274.67 922.97C249.06 937.92 207.54 937.92 181.93 922.97L181.93 922.97L181.92 922.97C180.56 922.2 179.21 921.31 177.87 920.35C177.1 919.8 176.4 919.24 175.68 918.67C175.38 918.43 175.07 918.2 174.77 917.94C173.8 917.15 172.9 916.33 172.05 915.5C171.63 915.11 171.22 914.69 170.81 914.28C170.58 914.03 170.32 913.79 170.1 913.54Z" />
						</g>
						<g id="&lt;Group&gt;">
							<path id="&lt;Path&gt;" class="shp4" d="M294.13 717.93C329.39 738.51 329.39 771.88 294.13 792.47C258.88 813.05 201.72 813.05 166.47 792.47C131.21 771.88 131.21 738.51 166.47 717.93C201.72 697.35 258.88 697.35 294.13 717.93Z" />
						</g>
						<g id="&lt;Group&gt;" style="opacity: 0.702">
							<path id="&lt;Path&gt;" class="shp8" d="M294.13 717.93C329.39 738.51 329.39 771.88 294.13 792.47C258.88 813.05 201.72 813.05 166.47 792.47C131.21 771.88 131.21 738.51 166.47 717.93C201.72 697.35 258.88 697.35 294.13 717.93Z" />
						</g>
						<g id="&lt;Group&gt;">
							<path id="&lt;Path&gt;" class="shp9" d="M277.18 727.83C303.07 742.94 303.07 767.45 277.18 782.57C251.29 797.68 209.31 797.68 183.42 782.57C157.53 767.45 157.53 742.94 183.42 727.83C209.31 712.71 251.29 712.71 277.18 727.83Z" />
						</g>
						<g id="&lt;Group&gt;" style="opacity: 0.302">
							<path id="&lt;Path&gt;" class="shp10" d="M277.18 727.83C303.07 742.94 303.07 767.45 277.18 782.57C251.29 797.68 209.31 797.68 183.42 782.57C157.53 767.45 157.53 742.94 183.42 727.83C209.31 712.71 251.29 712.71 277.18 727.83Z" />
						</g>
						<g id="&lt;Group&gt;">
							<path id="&lt;Path&gt;" class="shp11" d="M183.42 753.81C209.31 738.69 251.29 738.69 277.18 753.81C284.37 758.01 289.49 762.94 292.68 768.19C289.49 773.43 284.37 778.37 277.18 782.57C251.29 797.68 209.31 797.68 183.42 782.57C176.23 778.37 171.11 773.43 167.91 768.19C171.11 762.94 176.23 758.01 183.42 753.81Z" />
						</g>
					</g>
				</g>
			</g>
			<g id="Plants 20 ">
				<g id="&lt;Group&gt;">
					<g id="&lt;Group&gt;">
						<path id="&lt;Path&gt;" class="shp4" d="M217.64 687.83C215.91 684.32 214.46 680.67 213.7 676.56C211.97 667.15 214.32 656.36 221.93 650.56C224.97 648.26 228.91 646.55 230.2 642.97C230.91 640.99 230.64 638.81 230.28 636.74C228.86 628.71 226.15 620.44 228.38 612.59C230.45 605.33 236.55 599.76 243.37 596.53C250.19 593.29 257.75 592.05 265.2 590.83C269.17 590.17 273.24 589.48 276.75 587.51C281.06 585.1 282.41 580.83 285.1 577.09C288.06 572.96 291.91 569.14 295.69 565.77C303.55 558.74 313.41 552.96 324.3 553.44C347.03 554.44 346.38 574 339.82 588.82C333.26 603.65 331.54 608.47 345.73 623.92C359.93 639.36 359.96 658.4 343.02 669.06C326.09 679.72 315.06 681.12 321.77 701.65C327.75 719.97 331.46 735.62 314.53 755.2C303.58 767.85 288.62 776.89 269.9 776.12C264.59 775.9 252.93 773.46 248.01 771.01C242.85 768.45 246.32 764.45 244.58 759.36C240.84 748.44 237.1 737.51 233.36 726.59C230.47 718.13 228.26 708.75 224.44 700.74C222.29 696.25 219.76 692.14 217.64 687.83Z" />
					</g>
					<g id="&lt;Group&gt;" style="opacity: 0.251">
						<path id="&lt;Path&gt;" class="shp10" d="M217.64 687.83C215.91 684.32 214.46 680.67 213.7 676.56C211.97 667.15 214.32 656.36 221.93 650.56C224.97 648.26 228.91 646.55 230.2 642.97C230.91 640.99 230.64 638.81 230.28 636.74C228.86 628.71 226.15 620.44 228.38 612.59C230.45 605.33 236.55 599.76 243.37 596.53C250.19 593.29 257.75 592.05 265.2 590.83C269.17 590.17 273.24 589.48 276.75 587.51C281.06 585.1 282.41 580.83 285.1 577.09C288.06 572.96 291.91 569.14 295.69 565.77C303.55 558.74 313.41 552.96 324.3 553.44C347.03 554.44 346.38 574 339.82 588.82C333.26 603.65 331.54 608.47 345.73 623.92C359.93 639.36 359.96 658.4 343.02 669.06C326.09 679.72 315.06 681.12 321.77 701.65C327.75 719.97 331.46 735.62 314.53 755.2C303.58 767.85 288.62 776.89 269.9 776.12C264.59 775.9 252.93 773.46 248.01 771.01C242.85 768.45 246.32 764.45 244.58 759.36C240.84 748.44 237.1 737.51 233.36 726.59C230.47 718.13 228.26 708.75 224.44 700.74C222.29 696.25 219.76 692.14 217.64 687.83Z" />
					</g>
					<g id="&lt;Group&gt;">
						<path id="&lt;Path&gt;" class="shp8" d="M248.54 770.92C249.2 770.69 249.67 770.06 249.66 769.31C248.7 657.06 310.57 590.04 311.2 589.38C311.83 588.7 311.81 587.63 311.14 586.99C310.47 586.34 309.41 586.36 308.77 587.04C308.14 587.71 245.35 655.65 246.32 769.33C246.33 770.27 247.08 771.02 248.01 771.01C248.19 771.01 248.37 770.98 248.54 770.92Z" />
					</g>
					<g id="&lt;Group&gt;">
						<path id="&lt;Path&gt;" class="shp8" d="M266.55 666.51C266.66 666.47 266.78 666.41 266.89 666.35C287.02 653.68 322.94 644.23 323.3 644.13C324.2 643.89 324.73 642.97 324.5 642.07C324.27 641.16 323.35 640.62 322.46 640.85C320.97 641.24 285.68 650.53 265.12 663.47C264.33 663.97 264.09 665.01 264.58 665.8C265 666.48 265.83 666.76 266.55 666.51Z" />
					</g>
					<g id="&lt;Group&gt;">
						<path id="&lt;Path&gt;" class="shp8" d="M272.77 651.12C272.79 651.11 272.82 651.1 272.85 651.08C273.71 650.73 274.12 649.74 273.77 648.88C266.72 631.48 255.66 618.2 255.2 617.65C254.6 616.93 253.54 616.84 252.84 617.45C252.13 618.05 252.05 619.12 252.65 619.83C252.76 619.97 263.83 633.27 270.67 650.15C271.01 650.99 271.93 651.41 272.77 651.12Z" />
					</g>
				</g>
				<g id="&lt;Group&gt;">
					<path id="&lt;Path&gt;" class="shp4" d="M232.77 783.08C218.76 788.38 202.33 788.99 183.48 784.9C164.63 780.82 149.44 769.98 137.9 752.38C158.29 744.21 174.44 739.72 186.33 738.93C167.88 735.79 150.02 736.17 132.76 740.08C121.84 736.01 117.42 724.77 119.49 706.34C129.76 698.77 146.72 696.47 170.36 699.43C158.51 690.98 142.2 685.5 121.44 683.01C118.98 683.03 122.3 647.02 125.27 630.97C128.24 614.92 134.14 617.4 146.88 618.78C159.61 620.17 197.29 628.74 202.07 637.99C205.26 644.15 205.31 655.09 202.21 670.79C209.11 662.2 212.58 651.92 212.61 639.95C222.06 643.41 229.32 647.37 234.37 651.83C241.95 658.53 245.74 663.94 247.93 668.81C246.16 681.45 240.22 700.73 231.88 711.5C244.4 703.41 252.1 691.92 254.96 677.03C264.97 689.82 269.93 704.47 269.83 720.99C269.66 749.24 257.1 770.21 232.77 783.08Z" />
					<path id="&lt;Path&gt;" class="shp12" d="M232.77 783.08C218.76 788.38 202.33 788.99 183.48 784.9C164.63 780.82 149.44 769.98 137.9 752.38C158.29 744.21 174.44 739.72 186.33 738.93C167.88 735.79 150.02 736.17 132.76 740.08C121.84 736.01 117.42 724.77 119.49 706.34C129.76 698.77 146.72 696.47 170.36 699.43C158.51 690.98 142.2 685.5 121.44 683.01C118.98 683.03 122.3 647.02 125.27 630.97C128.24 614.92 134.14 617.4 146.88 618.78C159.61 620.17 197.29 628.74 202.07 637.99C205.26 644.15 205.31 655.09 202.21 670.79C209.11 662.2 212.58 651.92 212.61 639.95C222.06 643.41 229.32 647.37 234.37 651.83C241.95 658.53 245.74 663.94 247.93 668.81C246.16 681.45 240.22 700.73 231.88 711.5C244.4 703.41 252.1 691.92 254.96 677.03C264.97 689.82 269.93 704.47 269.83 720.99C269.66 749.24 257.1 770.21 232.77 783.08Z" />
					<g id="&lt;Group&gt;">
						<path id="&lt;Path&gt;" class="shp8" d="M236.5 780.57C235.95 780.35 235.53 779.83 235.48 779.18C231.21 725.62 171.27 641.94 144.78 625.13C144.03 624.66 143.8 623.65 144.27 622.89C144.74 622.13 145.74 621.92 146.49 622.38C173.41 639.46 234.34 724.5 238.68 778.92C238.75 779.82 238.1 780.6 237.21 780.67C236.96 780.69 236.72 780.65 236.5 780.57Z" />
					</g>
				</g>
			</g>
		</g>
	</g>
	<g id="Speech Bubbles">
		<g id="&lt;Group&gt;">
			<g id="&lt;Group&gt;">
				<path id="&lt;Path&gt;" class="shp4" d="M1232.07 150.25L696.1 150.25L696.1 482.18L1147.3 482.18L1175.23 546.45L1200 482.18L1232.07 482.18L1232.07 150.25Z" />
				<g id="&lt;Group&gt;">
					<path id="&lt;Path&gt;" class="shp2" d="M1232.07 152.25C1232.08 155.47 1232.23 280.17 1232.47 484.18L1232.47 484.58L1232.07 484.58C1222.22 484.59 1211.21 484.59 1200 484.6L1200.39 484.33C1192.63 504.48 1184.28 526.19 1175.65 548.61L1175.26 549.61L1174.83 548.62C1166.07 528.49 1156.6 506.72 1146.87 484.37L1147.3 484.65C1026.07 484.66 886.76 484.68 739.27 484.7C724.79 484.7 710.38 484.7 696.1 484.7L695.58 484.7L695.58 484.18C695.6 365.89 695.61 253.62 695.63 152.25L695.63 151.77L696.1 151.78C1012.54 152.06 1227.85 152.25 1232.07 152.25C1227.86 152.25 1012.54 152.44 696.1 152.72L696.58 152.25C696.59 253.62 696.61 365.89 696.62 484.18L696.1 483.66C710.38 483.66 724.79 483.66 739.27 483.66C886.76 483.68 1026.07 483.7 1147.3 483.72L1147.61 483.72L1147.73 484C1157.44 506.36 1166.89 528.13 1175.64 548.27L1174.82 548.29C1183.47 525.88 1191.84 504.17 1199.61 484.03L1199.71 483.77L1200 483.77C1211.21 483.77 1222.22 483.78 1232.07 483.78L1231.67 484.18C1231.92 280.17 1232.07 155.47 1232.07 152.25Z" />
				</g>
			</g>
			<g id="&lt;Group&gt;">
				<g id="&lt;Group&gt;">
					<g id="&lt;Group&gt;">
						<path id="&lt;Path&gt;" class="shp2" d="M1231.8 184.64C1231.8 185.04 1112.05 185.37 964.37 185.37C816.63 185.37 696.91 185.04 696.91 184.64C696.91 184.24 816.63 183.91 964.37 183.91C1112.05 183.91 1231.8 184.24 1231.8 184.64Z" />
					</g>
				</g>
				<g id="&lt;Group&gt;">
					<g id="&lt;Group&gt;">
						<path id="&lt;Path&gt;" class="shp2" d="M724.59 169.98C724.59 172.4 722.62 174.37 720.2 174.37C717.77 174.37 715.8 172.4 715.8 169.98C715.8 167.55 717.77 165.58 720.2 165.58C722.62 165.58 724.59 167.55 724.59 169.98Z" />
					</g>
					<g id="&lt;Group&gt;">
						<path id="&lt;Path&gt;" class="shp2" d="M740.48 169.98C740.48 172.4 738.52 174.37 736.09 174.37C733.67 174.37 731.7 172.4 731.7 169.98C731.7 167.55 733.67 165.58 736.09 165.58C738.52 165.58 740.48 167.55 740.48 169.98Z" />
					</g>
					<g id="&lt;Group&gt;">
						<path id="&lt;Path&gt;" class="shp2" d="M756.38 169.98C756.38 172.4 754.42 174.37 751.99 174.37C749.56 174.37 747.6 172.4 747.6 169.98C747.6 167.55 749.56 165.58 751.99 165.58C754.42 165.58 756.38 167.55 756.38 169.98Z" />
					</g>
				</g>
				<g id="&lt;Group&gt;">
					<path id="&lt;Compound Path&gt;" class="shp2" d="M754.56 244.02L741.83 248.93L754.56 253.84L754.56 256.82L738.5 250.47L738.5 247.39L754.56 241.04L754.56 244.02Z" />
					<path id="&lt;Compound Path&gt;" class="shp2" d="M767.8 231.29L770.92 231.29L759.09 265.07L755.97 265.07L767.8 231.29Z" />
					<path id="&lt;Compound Path&gt;" class="shp2" d="M788.07 247.39L788.07 250.47L772 256.82L772 253.84L784.77 248.93L772 244.02L772 241.04L788.07 247.39Z" />
					<path id="&lt;Compound Path&gt;" class="shp2" d="M792.13 259.22C792.13 257.79 793.24 256.78 794.57 256.78C795.86 256.78 796.93 257.79 796.93 259.22C796.93 260.66 795.86 261.7 794.57 261.7C793.24 261.7 792.13 260.66 792.13 259.22Z" />
					<path id="&lt;Compound Path&gt;" class="shp2" d="M800.27 259.22C800.27 257.79 801.38 256.78 802.71 256.78C804 256.78 805.08 257.79 805.08 259.22C805.08 260.66 804 261.7 802.71 261.7C801.38 261.7 800.27 260.66 800.27 259.22Z" />
					<path id="&lt;Compound Path&gt;" class="shp2" d="M808.42 259.22C808.42 257.79 809.53 256.78 810.85 256.78C812.14 256.78 813.22 257.79 813.22 259.22C813.22 260.66 812.14 261.7 810.85 261.7C809.53 261.7 808.42 260.66 808.42 259.22Z" />
				</g>
				<g id="&lt;Group&gt;">
					<g id="&lt;Group&gt;">
						<path id="&lt;Path&gt;" class="shp6" d="M1093.01 291.41C1093.01 291.82 1013.78 292.15 916.06 292.15C818.32 292.15 739.1 291.82 739.1 291.41C739.1 291.01 818.32 290.68 916.06 290.68C1013.78 290.68 1093.01 291.01 1093.01 291.41Z" />
					</g>
				</g>
				<g id="&lt;Group&gt;">
					<g id="&lt;Group&gt;">
						<path id="&lt;Path&gt;" class="shp2" d="M1150.81 292.46C1150.81 292.87 1143.19 293.19 1133.8 293.19C1124.41 293.19 1116.8 292.87 1116.8 292.46C1116.8 292.06 1124.41 291.73 1133.8 291.73C1143.19 291.73 1150.81 292.06 1150.81 292.46Z" />
					</g>
				</g>
				<g id="&lt;Group&gt;">
					<g id="&lt;Group&gt;">
						<path id="&lt;Path&gt;" class="shp2" d="M1200.5 292.46C1200.5 292.87 1192.19 293.19 1181.93 293.19C1171.67 293.19 1163.36 292.87 1163.36 292.46C1163.36 292.06 1171.67 291.73 1181.93 291.73C1192.19 291.73 1200.5 292.06 1200.5 292.46Z" />
					</g>
				</g>
				<g id="&lt;Group&gt;">
					<g id="&lt;Group&gt;">
						<path id="&lt;Path&gt;" class="shp6" d="M964.46 321.23C964.46 321.64 914.1 321.96 851.99 321.96C789.86 321.96 739.51 321.64 739.51 321.23C739.51 320.83 789.86 320.5 851.99 320.5C914.1 320.5 964.46 320.83 964.46 321.23Z" />
					</g>
				</g>
				<g id="&lt;Group&gt;">
					<g id="&lt;Group&gt;">
						<path id="&lt;Path&gt;" class="shp6" d="M962.85 432.5C962.85 432.9 912.49 433.23 850.38 433.23C788.25 433.23 737.9 432.9 737.9 432.5C737.9 432.09 788.25 431.77 850.38 431.77C912.49 431.77 962.85 432.09 962.85 432.5Z" />
					</g>
				</g>
				<g id="&lt;Group&gt;">
					<g id="&lt;Group&gt;">
						<path id="&lt;Path&gt;" class="shp2" d="M1046.18 321.23C1046.18 321.64 1032.48 321.96 1015.58 321.96C998.67 321.96 984.97 321.64 984.97 321.23C984.97 320.83 998.67 320.5 1015.58 320.5C1032.48 320.5 1046.18 320.83 1046.18 321.23Z" />
					</g>
				</g>
				<g id="&lt;Group&gt;">
					<g id="&lt;Group&gt;">
						<path id="&lt;Path&gt;" class="shp2" d="M1045.54 432.5C1045.54 432.9 1031.84 433.23 1014.94 433.23C998.03 433.23 984.33 432.9 984.33 432.5C984.33 432.09 998.03 431.77 1014.94 431.77C1031.84 431.77 1045.54 432.09 1045.54 432.5Z" />
					</g>
				</g>
				<g id="&lt;Group&gt;">
					<g id="&lt;Group&gt;">
						<path id="&lt;Path&gt;" class="shp7" d="M754.27 336.4C754.27 336.81 750.88 337.14 746.69 337.14C742.5 337.14 739.1 336.81 739.1 336.4C739.1 336 742.5 335.67 746.69 335.67C750.88 335.67 754.27 336 754.27 336.4Z" />
					</g>
				</g>
				<g id="&lt;Group&gt;">
					<g id="&lt;Group&gt;">
						<path id="&lt;Path&gt;" class="shp2" d="M806.59 336.72C806.59 337.12 799.21 337.45 790.11 337.45C781.01 337.45 773.63 337.12 773.63 336.72C773.63 336.31 781.01 335.99 790.11 335.99C799.21 335.99 806.59 336.31 806.59 336.72Z" />
					</g>
				</g>
				<g id="&lt;Group&gt;">
					<g id="&lt;Group&gt;">
						<path id="&lt;Path&gt;" class="shp2" d="M840.07 336.72C840.07 337.12 833.74 337.45 825.94 337.45C818.14 337.45 811.82 337.12 811.82 336.72C811.82 336.31 818.14 335.99 825.94 335.99C833.74 335.99 840.07 336.31 840.07 336.72Z" />
					</g>
				</g>
				<g id="&lt;Group&gt;">
					<g id="&lt;Group&gt;">
						<path id="&lt;Path&gt;" class="shp2" d="M882.44 336.72C882.44 337.12 876 337.45 868.05 337.45C860.11 337.45 853.67 337.12 853.67 336.72C853.67 336.31 860.11 335.99 868.05 335.99C876 335.99 882.44 336.31 882.44 336.72Z" />
					</g>
				</g>
				<g id="&lt;Group&gt;">
					<g id="&lt;Group&gt;">
						<path id="&lt;Path&gt;" class="shp2" d="M919.58 336.72C919.58 337.12 913.73 337.45 906.5 337.45C899.28 337.45 893.43 337.12 893.43 336.72C893.43 336.31 899.28 335.99 906.5 335.99C913.73 335.99 919.58 336.31 919.58 336.72Z" />
					</g>
				</g>
				<g id="&lt;Group&gt;">
					<g id="&lt;Group&gt;">
						<path id="&lt;Path&gt;" class="shp2" d="M1042.52 336.72C1042.52 337.12 1016.75 337.45 984.98 337.45C953.19 337.45 927.43 337.12 927.43 336.72C927.43 336.31 953.19 335.99 984.98 335.99C1016.75 335.99 1042.52 336.31 1042.52 336.72Z" />
					</g>
				</g>
				<g id="&lt;Group&gt;">
					<g id="&lt;Group&gt;">
						<path id="&lt;Path&gt;" class="shp7" d="M752.18 355.76C752.18 356.16 749.25 356.49 745.64 356.49C742.03 356.49 739.1 356.16 739.1 355.76C739.1 355.36 742.03 355.03 745.64 355.03C749.25 355.03 752.18 355.36 752.18 355.76Z" />
					</g>
				</g>
				<g id="&lt;Group&gt;">
					<g id="&lt;Group&gt;">
						<path id="&lt;Path&gt;" class="shp7" d="M752.7 375.64C752.7 376.04 749.66 376.37 745.9 376.37C742.15 376.37 739.1 376.04 739.1 375.64C739.1 375.23 742.15 374.91 745.9 374.91C749.66 374.91 752.7 375.23 752.7 375.64Z" />
					</g>
				</g>
				<g id="&lt;Group&gt;">
					<g id="&lt;Group&gt;">
						<path id="&lt;Path&gt;" class="shp7" d="M752.7 398.13C752.7 398.54 749.66 398.86 745.9 398.86C742.15 398.86 739.1 398.54 739.1 398.13C739.1 397.73 742.15 397.4 745.9 397.4C749.66 397.4 752.7 397.73 752.7 398.13Z" />
					</g>
				</g>
				<g id="&lt;Group&gt;">
					<g id="&lt;Group&gt;">
						<path id="&lt;Path&gt;" class="shp2" d="M876.69 397.09C876.69 397.49 853.97 397.82 825.94 397.82C797.91 397.82 775.2 397.49 775.2 397.09C775.2 396.68 797.91 396.35 825.94 396.35C853.97 396.35 876.69 396.68 876.69 397.09Z" />
					</g>
				</g>
				<g id="&lt;Group&gt;">
					<g id="&lt;Group&gt;">
						<path id="&lt;Path&gt;" class="shp2" d="M867.79 375.64C867.79 376.04 846.13 376.37 819.41 376.37C792.68 376.37 771.01 376.04 771.01 375.64C771.01 375.23 792.68 374.91 819.41 374.91C846.13 374.91 867.79 375.23 867.79 375.64Z" />
					</g>
				</g>
				<g id="&lt;Group&gt;">
					<g id="&lt;Group&gt;">
						<path id="&lt;Path&gt;" class="shp2" d="M1101.63 354.71C1101.63 355.12 1027.85 355.45 936.85 355.45C845.83 355.45 772.06 355.12 772.06 354.71C772.06 354.31 845.83 353.98 936.85 353.98C1027.85 353.98 1101.63 354.31 1101.63 354.71Z" />
					</g>
				</g>
			</g>
		</g>
		<g id="&lt;Group&gt;">
			<g id="&lt;Group&gt;">
				<path id="&lt;Path&gt;" class="shp4" d="M1265.01 287.99L1265.01 570.07L1221.15 606.67L1265.01 606.67L1269.31 606.67L1450.52 606.67L1450.52 287.99L1265.01 287.99Z" />
				<g id="&lt;Group&gt;">
					<path id="&lt;Path&gt;" class="shp2" d="M1265.01 287.99C1265.73 287.97 1266.81 287.96 1268.25 287.95C1270.43 287.94 1273.64 287.93 1277.84 287.91C1286.31 287.89 1298.76 287.85 1314.77 287.81C1346.91 287.76 1393.32 287.69 1450.52 287.6L1450.91 287.6L1450.91 287.99C1450.95 373.14 1450.99 484.34 1451.04 606.67L1451.04 607.19L1450.52 607.19C1440.31 607.19 1429.37 607.19 1418.35 607.19C1348.5 607.18 1281.76 607.16 1221.15 607.15L1219.81 607.15L1220.84 606.3C1235.99 593.66 1250.64 581.45 1264.71 569.72L1264.55 570.07C1264.64 485.74 1264.72 415.17 1264.78 365.67C1264.83 340.98 1264.87 321.55 1264.9 308.27C1264.92 301.66 1264.94 296.59 1264.95 293.15C1264.97 291.46 1264.97 290.17 1264.98 289.28C1264.99 288.71 1264.99 288.28 1265.01 287.99C1265.02 288.3 1265.03 288.75 1265.03 289.33C1265.04 290.23 1265.05 291.54 1265.06 293.25C1265.07 296.71 1265.09 301.81 1265.11 308.46C1265.14 321.76 1265.18 341.23 1265.23 365.97C1265.29 415.4 1265.37 485.86 1265.46 570.07L1265.46 570.29L1265.3 570.43C1251.24 582.17 1236.6 594.39 1221.46 607.04L1221.15 606.19C1281.76 606.17 1348.5 606.16 1418.35 606.15C1429.37 606.15 1440.31 606.15 1450.52 606.15L1450 606.67C1450.05 484.34 1450.09 373.14 1450.13 287.99L1450.52 288.39C1393.42 288.3 1347.09 288.23 1315.02 288.18C1298.96 288.13 1286.48 288.1 1277.99 288.08C1273.76 288.06 1270.53 288.04 1268.33 288.03C1266.87 288.03 1265.77 288.01 1265.01 287.99Z" />
				</g>
			</g>
			<g id="&lt;Group&gt;">
				<g id="&lt;Group&gt;">
					<path id="&lt;Path&gt;" class="shp2" d="M1281.85 302.03C1281.85 304.1 1280.17 305.79 1278.1 305.79C1276.02 305.79 1274.34 304.1 1274.34 302.03C1274.34 299.95 1276.02 298.27 1278.1 298.27C1280.17 298.27 1281.85 299.95 1281.85 302.03Z" />
					<path id="&lt;Path&gt;" class="shp2" d="M1295.46 302.03C1295.46 304.1 1293.77 305.79 1291.7 305.79C1289.62 305.79 1287.94 304.1 1287.94 302.03C1287.94 299.95 1289.62 298.27 1291.7 298.27C1293.77 298.27 1295.46 299.95 1295.46 302.03Z" />
					<path id="&lt;Path&gt;" class="shp2" d="M1309.06 302.03C1309.06 304.1 1307.38 305.79 1305.3 305.79C1303.23 305.79 1301.54 304.1 1301.54 302.03C1301.54 299.95 1303.23 298.27 1305.3 298.27C1307.38 298.27 1309.06 299.95 1309.06 302.03Z" />
				</g>
				<g id="&lt;Group&gt;">
					<g id="&lt;Group&gt;">
						<g id="&lt;Group&gt;">
							<path id="&lt;Path&gt;" class="shp4" d="M1399.53 388.94C1399.53 389.27 1376.01 389.54 1347 389.54C1317.99 389.54 1294.47 389.27 1294.47 388.94C1294.47 388.61 1317.99 388.34 1347 388.34C1376.01 388.34 1399.53 388.61 1399.53 388.94Z" />
						</g>
					</g>
					<g id="&lt;Group&gt;">
						<g id="&lt;Group&gt;">
							<path id="&lt;Path&gt;" class="shp4" d="M1421.43 414.46C1421.43 414.79 1392.81 415.06 1357.51 415.06C1322.2 415.06 1293.59 414.79 1293.59 414.46C1293.59 414.12 1322.2 413.85 1357.51 413.85C1392.81 413.85 1421.43 414.12 1421.43 414.46Z" />
						</g>
					</g>
					<g id="&lt;Group&gt;">
						<g id="&lt;Group&gt;">
							<path id="&lt;Path&gt;" class="shp0" d="M1426.64 509.66C1426.64 510 1396.12 510.27 1358.48 510.27C1320.83 510.27 1290.32 510 1290.32 509.66C1290.32 509.33 1320.83 509.06 1358.48 509.06C1396.12 509.06 1426.64 509.33 1426.64 509.66Z" />
						</g>
					</g>
					<g id="&lt;Group&gt;">
						<g id="&lt;Group&gt;">
							<path id="&lt;Path&gt;" class="shp4" d="M1304.33 427.44C1304.33 427.77 1301.42 428.04 1297.84 428.04C1294.25 428.04 1291.35 427.77 1291.35 427.44C1291.35 427.11 1294.25 426.84 1297.84 426.84C1301.42 426.84 1304.33 427.11 1304.33 427.44Z" />
						</g>
					</g>
					<g id="&lt;Group&gt;">
						<g id="&lt;Group&gt;">
							<path id="&lt;Path&gt;" class="shp4" d="M1349.09 427.71C1349.09 428.04 1342.78 428.31 1334.99 428.31C1327.2 428.31 1320.89 428.04 1320.89 427.71C1320.89 427.37 1327.2 427.1 1334.99 427.1C1342.78 427.1 1349.09 427.37 1349.09 427.71Z" />
						</g>
					</g>
					<g id="&lt;Group&gt;">
						<g id="&lt;Group&gt;">
							<path id="&lt;Path&gt;" class="shp4" d="M1377.74 427.71C1377.74 428.04 1372.33 428.31 1365.66 428.31C1358.98 428.31 1353.57 428.04 1353.57 427.71C1353.57 427.37 1358.98 427.1 1365.66 427.1C1372.33 427.1 1377.74 427.37 1377.74 427.71Z" />
						</g>
					</g>
					<g id="&lt;Group&gt;">
						<g id="&lt;Group&gt;">
							<path id="&lt;Path&gt;" class="shp7" d="M1302.54 444C1302.54 444.33 1300.03 444.6 1296.94 444.6C1293.85 444.6 1291.35 444.33 1291.35 444C1291.35 443.67 1293.85 443.4 1296.94 443.4C1300.03 443.4 1302.54 443.67 1302.54 444Z" />
						</g>
					</g>
					<g id="&lt;Group&gt;">
						<g id="&lt;Group&gt;">
							<path id="&lt;Path&gt;" class="shp7" d="M1302.99 461.01C1302.99 461.34 1300.38 461.61 1297.17 461.61C1293.95 461.61 1291.35 461.34 1291.35 461.01C1291.35 460.68 1293.95 460.41 1297.17 460.41C1300.38 460.41 1302.99 460.68 1302.99 461.01Z" />
						</g>
					</g>
					<g id="&lt;Group&gt;">
						<g id="&lt;Group&gt;">
							<path id="&lt;Path&gt;" class="shp0" d="M1302.99 480.26C1302.99 480.59 1300.38 480.86 1297.17 480.86C1293.95 480.86 1291.35 480.59 1291.35 480.26C1291.35 479.93 1293.95 479.66 1297.17 479.66C1300.38 479.66 1302.99 479.93 1302.99 480.26Z" />
						</g>
					</g>
					<g id="&lt;Group&gt;">
						<g id="&lt;Group&gt;">
							<path id="&lt;Path&gt;" class="shp0" d="M1409.08 479.36C1409.08 479.7 1389.64 479.97 1365.66 479.97C1341.67 479.97 1322.24 479.7 1322.24 479.36C1322.24 479.03 1341.67 478.76 1365.66 478.76C1389.64 478.76 1409.08 479.03 1409.08 479.36Z" />
						</g>
					</g>
					<g id="&lt;Group&gt;">
						<g id="&lt;Group&gt;">
							<path id="&lt;Path&gt;" class="shp7" d="M1401.47 461.01C1401.47 461.34 1382.93 461.61 1360.06 461.61C1337.19 461.61 1318.65 461.34 1318.65 461.01C1318.65 460.68 1337.19 460.41 1360.06 460.41C1382.93 460.41 1401.47 460.68 1401.47 461.01Z" />
						</g>
					</g>
					<g id="&lt;Group&gt;">
						<g id="&lt;Group&gt;">
							<path id="&lt;Path&gt;" class="shp0" d="M1311.46 535.08C1311.46 535.41 1308.86 535.68 1305.64 535.68C1302.43 535.68 1299.82 535.41 1299.82 535.08C1299.82 534.75 1302.43 534.48 1305.64 534.48C1308.86 534.48 1311.46 534.75 1311.46 535.08Z" />
						</g>
					</g>
					<g id="&lt;Group&gt;">
						<g id="&lt;Group&gt;">
							<path id="&lt;Path&gt;" class="shp0" d="M1311.46 554.33C1311.46 554.66 1308.86 554.93 1305.64 554.93C1302.43 554.93 1299.82 554.66 1299.82 554.33C1299.82 554 1302.43 553.73 1305.64 553.73C1308.86 553.73 1311.46 554 1311.46 554.33Z" />
						</g>
					</g>
					<g id="&lt;Group&gt;">
						<g id="&lt;Group&gt;">
							<path id="&lt;Path&gt;" class="shp0" d="M1417.55 553.44C1417.55 553.77 1398.11 554.04 1374.13 554.04C1350.15 554.04 1330.71 553.77 1330.71 553.44C1330.71 553.1 1350.15 552.83 1374.13 552.83C1398.11 552.83 1417.55 553.1 1417.55 553.44Z" />
						</g>
					</g>
					<g id="&lt;Group&gt;">
						<g id="&lt;Group&gt;">
							<path id="&lt;Path&gt;" class="shp0" d="M1409.94 535.08C1409.94 535.41 1391.4 535.68 1368.54 535.68C1345.67 535.68 1327.13 535.41 1327.13 535.08C1327.13 534.75 1345.67 534.48 1368.54 534.48C1391.4 534.48 1409.94 534.75 1409.94 535.08Z" />
						</g>
					</g>
					<g id="&lt;Group&gt;">
						<g id="&lt;Group&gt;">
							<path id="&lt;Path&gt;" class="shp0" d="M1432.26 443.1C1432.26 443.44 1407.03 443.71 1375.91 443.71C1344.78 443.71 1319.55 443.44 1319.55 443.1C1319.55 442.77 1344.78 442.5 1375.91 442.5C1407.03 442.5 1432.26 442.77 1432.26 443.1Z" />
						</g>
					</g>
					<g id="&lt;Group&gt;">
						<g id="&lt;Group&gt;">
							<path id="&lt;Path&gt;" class="shp2" d="M1448.78 316.75C1448.78 317.09 1408.04 317.36 1357.8 317.36C1307.55 317.36 1266.82 317.09 1266.82 316.75C1266.82 316.42 1307.55 316.15 1357.8 316.15C1408.04 316.15 1448.78 316.42 1448.78 316.75Z" />
						</g>
					</g>
					<g id="&lt;Group&gt;">
						<g id="&lt;Group&gt;">
							<path id="&lt;Path&gt;" class="shp4" d="M1332.85 373.55C1332.85 373.88 1324.25 374.15 1313.64 374.15C1303.02 374.15 1294.42 373.88 1294.42 373.55C1294.42 373.22 1303.02 372.95 1313.64 372.95C1324.25 372.95 1332.85 373.22 1332.85 373.55Z" />
						</g>
					</g>
					<g id="&lt;Group&gt;">
						<g id="&lt;Group&gt;">
							<path id="&lt;Path&gt;" class="shp4" d="M1311.1 338.75C1311.1 339.08 1307.04 339.35 1302.04 339.35C1297.03 339.35 1292.97 339.08 1292.97 338.75C1292.97 338.42 1297.03 338.15 1302.04 338.15C1307.04 338.15 1311.1 338.42 1311.1 338.75Z" />
						</g>
					</g>
				</g>
			</g>
		</g>
	</g>
	<g id="Character">
		<g id="&lt;Group&gt;">
			<g id="&lt;Group&gt;">
				<g id="&lt;Group&gt;">
					<g id="&lt;Group&gt;">
						<g id="&lt;Group&gt;">
							<path id="&lt;Path&gt;" class="shp0" d="M1150.54 749.52L1190.83 709.69L1118.99 586.68C1111.51 578.12 1102.04 571.54 1091.42 567.5L1066.12 557.88L1003.23 546.35L958.57 563.93C947.28 568.38 940.41 579.87 941.84 591.92L953.52 690.25L960.4 818.27L1122.66 790.13L1106.34 742.77L1106.89 668.95L1150.54 749.52Z" />
							<g id="&lt;Group&gt;">
								<g id="&lt;Group&gt;">
									<g id="&lt;Group&gt;">
										<g id="&lt;Group&gt;">
											<path id="&lt;Path&gt;" class="shp2" d="M1107.83 739.63C1108.21 739.63 1108.3 714.05 1108.05 682.51C1107.79 650.96 1107.27 625.4 1106.89 625.4C1106.51 625.4 1106.41 650.97 1106.67 682.52C1106.93 714.06 1107.45 739.63 1107.83 739.63Z" />
										</g>
									</g>
								</g>
							</g>
						</g>
						<g id="&lt;Group&gt;">
							<g id="&lt;Group&gt;">
								<path id="&lt;Path&gt;" class="shp0" d="M1101.88 758.4L1003.84 718.93C995.93 715.75 990.52 708.35 989.87 699.85L982.69 605.85C983.26 579.2 975.22 565.23 958.57 563.93L944.37 569.53C926.01 579.28 921.46 606.01 923.96 626.64C927.51 655.97 928.99 697.47 932.96 722.92C936.21 743.74 948.72 760.21 968.52 767.42L1089.27 793.56L1101.88 758.4Z" />
							</g>
						</g>
						<g id="&lt;Group&gt;">
							<g id="&lt;Group&gt;">
								<g id="&lt;Group&gt;">
									<path id="&lt;Path&gt;" class="shp2" d="M984.1 620.19C984.14 620.19 984.25 620.93 984.41 622.35C984.56 623.88 984.77 625.94 985.04 628.54C985.54 634.05 986.24 641.8 987.11 651.34C987.94 661 988.93 672.45 990.02 685.16C990.29 688.34 990.56 691.6 990.84 694.93C991.13 698.27 991.33 701.68 992.09 704.99C992.81 708.32 994.41 711.43 996.97 713.8C999.51 716.18 1002.69 717.92 1006.01 719.43C1033.05 731.13 1057.96 740.79 1076.05 747.56C1085.03 750.87 1092.33 753.56 1097.52 755.47C1099.97 756.37 1101.92 757.09 1103.36 757.62C1104.69 758.13 1105.38 758.41 1105.37 758.46C1105.35 758.5 1104.63 758.3 1103.27 757.87C1101.81 757.4 1099.84 756.76 1097.35 755.95C1092.22 754.25 1084.82 751.7 1075.73 748.43C1057.54 741.87 1032.58 732.35 1005.47 720.62C1002.1 719.09 998.78 717.29 996.07 714.75C993.33 712.22 991.57 708.75 990.84 705.28C990.06 701.8 989.87 698.37 989.59 695.04C989.33 691.71 989.07 688.45 988.81 685.26C987.83 672.55 986.94 661.09 986.19 651.41C985.49 641.86 984.93 634.1 984.53 628.58C984.37 625.97 984.24 623.9 984.14 622.37C984.07 620.94 984.05 620.2 984.1 620.19Z" />
								</g>
							</g>
						</g>
						<g id="&lt;Group&gt;">
							<g id="&lt;Group&gt;">
								<g id="&lt;Group&gt;">
									<path id="&lt;Path&gt;" class="shp2" d="M927.93 671.29C927.97 671.29 928.04 671.73 928.12 672.56C928.21 673.54 928.32 674.73 928.45 676.18C928.74 679.53 929.13 684.04 929.61 689.52C930.15 695.15 930.83 701.84 931.81 709.24C932.81 716.63 934 724.78 936.23 733.06C937.29 737.23 938.77 741.09 941.02 744.41C943.27 747.75 945.76 750.75 948.34 753.41C953.53 758.71 959.06 762.6 964.03 765.18C974.06 770.39 981.35 770.47 981.25 770.81C981.25 770.86 980.81 770.85 979.97 770.78C979.14 770.73 977.91 770.63 976.35 770.32C973.22 769.76 968.73 768.54 963.61 766C958.5 763.49 952.81 759.61 947.48 754.25C944.83 751.57 942.26 748.53 939.95 745.13C937.61 741.71 936.02 737.59 934.97 733.4C932.71 725 931.56 716.83 930.61 709.4C929.69 701.96 929.1 695.25 928.68 689.6C928.27 683.95 928.05 679.38 927.94 676.21C927.91 674.76 927.88 673.55 927.86 672.57C927.86 671.74 927.88 671.3 927.93 671.29Z" />
								</g>
							</g>
						</g>
						<g id="&lt;Group&gt;">
							<g id="&lt;Group&gt;">
								<g id="&lt;Group&gt;">
									<path id="&lt;Path&gt;" class="shp2" d="M969.85 737.07C969.72 737.03 970.14 734.94 971.64 731.85C973.12 728.76 975.87 724.77 979.87 721.34C983.88 717.93 988.25 715.84 991.53 714.86C994.82 713.86 996.95 713.77 996.97 713.91C997.01 714.13 994.95 714.54 991.83 715.73C988.72 716.91 984.59 719.05 980.72 722.34C976.87 725.65 974.11 729.39 972.45 732.28C970.79 735.17 970.06 737.14 969.85 737.07Z" />
								</g>
							</g>
						</g>
						<g id="&lt;Group&gt;" style="opacity: 0.302">
							<g id="&lt;Group&gt;">
								<g id="&lt;Group&gt;">
									<path id="&lt;Path&gt;" class="shp10" d="M1073.71 747.19C1063.22 741.27 1052.97 736.72 1042.01 731.74C1031.04 726.76 1020.31 720.36 1013.13 710.69C999.6 692.46 1001.14 666.14 987.29 648.14C988.2 660.24 989.1 672.34 990.01 684.44C990.84 695.54 989.14 706.5 996.28 714.04C1002.3 720.39 1014.03 725.26 1022.34 728C1039.04 733.51 1057.01 741.69 1073.71 747.19Z" />
								</g>
							</g>
						</g>
					</g>
				</g>
				<path id="&lt;Path&gt;" class="shp13" d="M1106.91 632.32L1115.39 684.64L1107.36 669.82L1106.91 632.32Z" />
				<g id="&lt;Group&gt;">
					<path id="&lt;Path&gt;" class="shp6" d="M981.14 600.05C981.14 600.12 980.33 600.18 978.87 600.22C977.19 600.27 975.12 600.32 972.69 600.38C967.47 600.51 960.26 600.77 952.32 601.34C944.38 601.91 937.21 602.68 932.03 603.29C929.61 603.58 927.56 603.82 925.88 604.02C924.43 604.19 923.62 604.24 923.61 604.17C923.6 604.1 924.39 603.91 925.82 603.62C927.26 603.33 929.34 602.96 931.93 602.56C937.1 601.76 944.28 600.88 952.25 600.3C960.22 599.73 967.45 599.59 972.68 599.64C975.3 599.67 977.41 599.73 978.88 599.82C980.34 599.9 981.14 599.98 981.14 600.05Z" />
				</g>
				<g id="&lt;Group&gt;">
					<path id="&lt;Path&gt;" class="shp6" d="M983.93 650.11C983.96 650.4 971.1 651.7 955.23 653.01C939.35 654.32 926.47 655.15 926.44 654.87C926.42 654.58 939.27 653.28 955.14 651.97C971.02 650.66 983.91 649.83 983.93 650.11Z" />
				</g>
				<g id="&lt;Group&gt;">
					<path id="&lt;Path&gt;" class="shp6" d="M988.66 702.74C988.69 702.81 987.96 703.22 986.62 703.9C985.29 704.6 983.31 705.52 980.83 706.57C975.87 708.67 968.81 711.13 960.78 712.94C952.74 714.73 945.3 715.51 939.92 715.72C937.23 715.84 935.05 715.85 933.55 715.79C932.04 715.74 931.21 715.67 931.21 715.6C931.21 715.53 932.04 715.46 933.54 715.38C935.04 715.32 937.21 715.19 939.88 714.99C945.22 714.59 952.58 713.7 960.55 711.92C968.52 710.13 975.55 707.8 980.56 705.88C983.06 704.93 985.07 704.12 986.46 703.54C987.84 702.96 988.63 702.68 988.66 702.74Z" />
				</g>
				<g id="&lt;Group&gt;">
					<path id="&lt;Path&gt;" class="shp6" d="M1023.52 729.73C1023.68 730.03 1018.41 732.36 1013.8 737.54C1009.12 742.65 1007.33 748.14 1007.03 748C1006.91 747.97 1007.19 746.55 1008.11 744.42C1009.02 742.29 1010.65 739.48 1013.03 736.84C1015.41 734.2 1018.04 732.29 1020.07 731.17C1022.09 730.05 1023.47 729.62 1023.52 729.73Z" />
				</g>
				<g id="&lt;Group&gt;">
					<path id="&lt;Path&gt;" class="shp6" d="M1058.98 764.39C1058.72 764.33 1059.86 759.44 1062.83 754.07C1065.76 748.67 1069.26 745.08 1069.45 745.26C1069.69 745.46 1066.61 749.28 1063.74 754.57C1060.84 759.83 1059.28 764.48 1058.98 764.39Z" />
				</g>
				<g id="&lt;Group&gt;">
					<path id="&lt;Path&gt;" class="shp6" d="M1003.1 570.61C1003.15 570.89 996.94 572.25 989.23 573.64C981.52 575.04 975.23 575.94 975.18 575.65C975.13 575.37 981.34 574.01 989.05 572.62C996.75 571.22 1003.04 570.32 1003.1 570.61Z" />
				</g>
				<g id="&lt;Group&gt;">
					<path id="&lt;Path&gt;" class="shp6" d="M1096.95 574.88C1096.92 575.16 1088.31 574.38 1077.73 573.12C1067.14 571.86 1058.59 570.61 1058.62 570.33C1058.66 570.04 1067.26 570.83 1077.85 572.09C1088.43 573.34 1096.99 574.59 1096.95 574.88Z" />
				</g>
				<g id="&lt;Group&gt;">
					<path id="&lt;Path&gt;" class="shp6" d="M1104.97 618.53C1104.97 618.56 1104.54 618.59 1103.74 618.61C1102.82 618.62 1101.66 618.63 1100.22 618.64C1097.03 618.63 1092.64 618.63 1087.29 618.62C1076.36 618.61 1061.28 618.7 1044.62 619.13C1027.96 619.56 1012.89 620.24 1001.98 620.81C996.63 621.09 992.25 621.32 989.07 621.49C987.63 621.56 986.47 621.61 985.55 621.65C984.75 621.67 984.32 621.67 984.32 621.63C984.32 621.59 984.74 621.53 985.54 621.44C986.45 621.35 987.61 621.23 989.04 621.09C992.08 620.8 996.49 620.45 1001.94 620.08C1012.84 619.32 1027.92 618.52 1044.6 618.09C1061.27 617.66 1076.37 617.69 1087.29 617.88C1092.75 617.98 1097.17 618.1 1100.23 618.23C1101.66 618.3 1102.83 618.36 1103.74 618.4C1104.55 618.45 1104.97 618.49 1104.97 618.53Z" />
				</g>
				<g id="&lt;Group&gt;">
					<path id="&lt;Path&gt;" class="shp6" d="M1106.12 673.81C1106.14 674.1 1080.41 676.02 1048.67 678.11C1016.92 680.2 991.17 681.67 991.16 681.38C991.14 681.09 1016.85 679.17 1048.6 677.08C1080.35 674.99 1106.1 673.52 1106.12 673.81Z" />
				</g>
				<g id="&lt;Group&gt;">
					<path id="&lt;Path&gt;" class="shp6" d="M1103.38 722.51C1103.41 722.58 1102.64 722.9 1101.22 723.43C1099.81 723.97 1097.74 724.69 1095.17 725.52C1090.03 727.2 1082.86 729.31 1074.84 731.24C1066.82 733.17 1059.47 734.55 1054.13 735.39C1051.46 735.81 1049.3 736.11 1047.8 736.28C1046.29 736.45 1045.46 736.51 1045.45 736.44C1045.44 736.37 1046.25 736.17 1047.73 735.88C1049.43 735.55 1051.53 735.14 1054.01 734.66C1059.3 733.64 1066.6 732.15 1074.6 730.23C1082.59 728.3 1089.77 726.32 1094.95 724.82C1097.38 724.12 1099.43 723.53 1101.09 723.05C1102.55 722.64 1103.36 722.44 1103.38 722.51Z" />
				</g>
				<g id="&lt;Group&gt;">
					<path id="&lt;Path&gt;" class="shp6" d="M1144.52 634.23C1144.59 634.51 1136.23 636.91 1125.85 639.6C1115.46 642.28 1106.98 644.24 1106.91 643.96C1106.84 643.68 1115.2 641.28 1125.59 638.59C1135.97 635.91 1144.45 633.95 1144.52 634.23Z" />
				</g>
				<g id="&lt;Group&gt;">
					<path id="&lt;Path&gt;" class="shp6" d="M1124.91 596.86C1124.96 597.15 1121.25 598.05 1116.63 598.88C1112.01 599.71 1108.22 600.16 1108.17 599.88C1108.12 599.59 1111.82 598.69 1116.45 597.86C1121.07 597.03 1124.86 596.58 1124.91 596.86Z" />
				</g>
				<g id="&lt;Group&gt;">
					<path id="&lt;Path&gt;" class="shp2" d="M984.39 608.46C984.19 608.5 983.88 605.14 982.05 600.11C980.26 595.12 976.63 588.46 970.57 583.01C964.5 577.56 957.49 574.65 952.33 573.41C947.14 572.12 943.77 572.18 943.78 571.97C943.78 571.91 944.62 571.84 946.13 571.88C947.65 571.92 949.84 572.13 952.5 572.69C957.79 573.77 965.03 576.64 971.26 582.24C977.49 587.83 981.11 594.73 982.75 599.87C983.59 602.46 984.03 604.62 984.23 606.12C984.43 607.62 984.45 608.46 984.39 608.46Z" />
				</g>
				<g id="&lt;Group&gt;">
					<path id="&lt;Path&gt;" class="shp2" d="M1101.21 581.8C1101.49 581.75 1103.04 589.94 1104.66 600.08C1106.28 610.23 1107.37 618.49 1107.09 618.53C1106.8 618.58 1105.26 610.39 1103.63 600.25C1102.01 590.1 1100.92 581.84 1101.21 581.8Z" />
				</g>
			</g>
			<g id="&lt;Group&gt;">
				<g id="&lt;Group&gt;">
					<g id="&lt;Group&gt;">
						<g id="&lt;Group&gt;">
							<path id="&lt;Path&gt;" class="shp0" d="M1210.48 876.57C1260.72 890.48 1286.85 897.78 1288.86 898.49C1293.4 900.09 1292.64 916.72 1285.58 916.47C1282.23 916.34 1227.69 918.5 1220.8 918.07C1216.21 917.78 1206.98 914.9 1193.12 909.44L1210.48 876.57Z" />
						</g>
					</g>
				</g>
				<g id="&lt;Group&gt;">
					<g id="&lt;Group&gt;">
						<g id="&lt;Group&gt;">
							<g id="&lt;Group&gt;">
								<path id="&lt;Path&gt;" class="shp8" d="M1241.87 905.33C1242.25 905.38 1242.76 901.39 1245.19 897.24C1247.57 893.04 1250.76 890.6 1250.52 890.3C1250.39 890.01 1246.65 892.13 1244.1 896.61C1241.51 901.05 1241.56 905.36 1241.87 905.33Z" />
							</g>
						</g>
					</g>
				</g>
				<g id="&lt;Group&gt;">
					<g id="&lt;Group&gt;">
						<g id="&lt;Group&gt;">
							<g id="&lt;Group&gt;">
								<path id="&lt;Path&gt;" class="shp8" d="M1234.02 901.76C1234.39 901.83 1235.15 898.27 1237.16 894.33C1239.12 890.37 1241.53 887.64 1241.26 887.38C1241.05 887.13 1238.11 889.6 1236.03 893.76C1233.92 897.91 1233.69 901.74 1234.02 901.76Z" />
							</g>
						</g>
					</g>
				</g>
				<g id="&lt;Group&gt;">
					<g id="&lt;Group&gt;">
						<g id="&lt;Group&gt;">
							<g id="&lt;Group&gt;">
								<path id="&lt;Path&gt;" class="shp8" d="M1226.65 899.79C1227.03 899.77 1226.74 896 1228.41 891.83C1230.01 887.63 1232.78 885.06 1232.51 884.78C1232.36 884.5 1228.98 886.82 1227.23 891.37C1225.44 895.89 1226.34 899.9 1226.65 899.79Z" />
							</g>
						</g>
					</g>
				</g>
				<g id="&lt;Group&gt;">
					<g id="&lt;Group&gt;">
						<g id="&lt;Group&gt;">
							<g id="&lt;Group&gt;">
								<path id="&lt;Path&gt;" class="shp8" d="M1227.98 890.06C1228.12 890.09 1228.79 887.99 1228.79 884.45C1228.79 882.69 1228.59 880.58 1228.03 878.3C1227.75 877.17 1227.38 875.99 1226.91 874.81C1226.66 874.21 1226.39 873.52 1225.7 872.96C1225 872.33 1223.72 872.46 1223.11 873.09C1222.42 873.69 1222.2 874.54 1222.11 875.22C1222.03 875.91 1221.99 876.56 1222.01 877.21C1222.03 878.51 1222.2 879.75 1222.48 880.9C1223.03 883.2 1223.93 885.13 1224.8 886.66C1226.55 889.72 1228.07 891.28 1228.18 891.2C1228.35 891.08 1227.09 889.32 1225.59 886.25C1224.85 884.71 1224.07 882.82 1223.61 880.64C1223.38 879.56 1223.25 878.4 1223.25 877.2C1223.28 876.04 1223.26 874.6 1223.94 874.04C1224.3 873.74 1224.62 873.72 1224.94 873.96C1225.27 874.21 1225.55 874.73 1225.76 875.27C1226.23 876.4 1226.61 877.51 1226.9 878.6C1227.5 880.76 1227.78 882.78 1227.9 884.48C1228.12 887.89 1227.78 890.03 1227.98 890.06Z" />
							</g>
						</g>
					</g>
				</g>
				<g id="&lt;Group&gt;">
					<g id="&lt;Group&gt;">
						<g id="&lt;Group&gt;">
							<g id="&lt;Group&gt;">
								<path id="&lt;Path&gt;" class="shp8" d="M1227.89 889.29C1227.93 889.15 1226.11 888.53 1223.03 888.51C1221.5 888.5 1219.66 888.66 1217.68 889.16C1216.71 889.42 1215.66 889.68 1214.6 890.3C1213.57 890.82 1212.49 892.25 1212.9 893.74C1213.22 895.14 1214.42 896.12 1215.62 896.43C1216.82 896.76 1217.98 896.64 1219 896.42C1221.06 895.95 1222.67 894.93 1223.89 894.01C1226.31 892.12 1227.49 890.67 1227.4 890.56C1227.26 890.4 1225.84 891.64 1223.38 893.28C1222.15 894.07 1220.6 894.92 1218.76 895.28C1217.84 895.46 1216.86 895.51 1215.96 895.24C1215.08 895 1214.34 894.32 1214.13 893.45C1213.91 892.61 1214.42 891.84 1215.25 891.35C1216.06 890.85 1217.06 890.56 1217.98 890.28C1219.85 889.75 1221.59 889.51 1223.06 889.4C1226.01 889.19 1227.86 889.49 1227.89 889.29Z" />
							</g>
						</g>
					</g>
				</g>
				<g id="&lt;Group&gt;">
					<g id="&lt;Group&gt;">
						<g id="&lt;Group&gt;">
							<g id="&lt;Group&gt;">
								<path id="&lt;Path&gt;" class="shp8" d="M1253.45 906.13C1253.83 906.09 1253.46 902.87 1254.94 899.34C1256.35 895.77 1258.87 893.73 1258.63 893.44C1258.5 893.13 1255.35 894.92 1253.77 898.86C1252.14 902.79 1253.15 906.27 1253.45 906.13Z" />
							</g>
						</g>
					</g>
				</g>
				<g id="&lt;Group&gt;">
					<g id="&lt;Group&gt;">
						<g id="&lt;Group&gt;">
							<g id="&lt;Group&gt;">
							</g>
						</g>
					</g>
				</g>
				<g id="&lt;Group&gt;">
					<g id="&lt;Group&gt;">
						<g id="&lt;Group&gt;">
							<g id="&lt;Group&gt;">
							</g>
						</g>
					</g>
				</g>
			</g>
			<g id="&lt;Group&gt;">
				<g id="&lt;Group&gt;">
					<g id="&lt;Group&gt;">
						<g id="&lt;Group&gt;">
							<path id="&lt;Path&gt;" class="shp0" d="M1121.29 859.08C1073.75 890.21 1049.13 906.41 1047.43 907.7C1043.59 910.6 1047.99 924.42 1054.64 922.03C1057.79 920.9 1117.63 904.25 1124.06 901.75C1128.35 900.08 1136.27 894.54 1147.82 885.12L1121.29 859.08Z" />
						</g>
					</g>
				</g>
				<g id="&lt;Group&gt;">
					<g id="&lt;Group&gt;">
						<g id="&lt;Group&gt;">
							<g id="&lt;Group&gt;">
								<path id="&lt;Path&gt;" class="shp2" d="M1100.12 896.01C1100.43 895.94 1099.16 891.83 1095.34 888.38C1091.56 884.89 1087.35 884 1087.31 884.32C1087.18 884.68 1090.96 886.03 1094.49 889.31C1098.07 892.53 1099.77 896.17 1100.12 896.01Z" />
							</g>
						</g>
					</g>
				</g>
				<g id="&lt;Group&gt;">
					<g id="&lt;Group&gt;">
						<g id="&lt;Group&gt;">
							<g id="&lt;Group&gt;">
								<path id="&lt;Path&gt;" class="shp2" d="M1106.52 890.23C1106.82 890.11 1105.44 886.53 1102.17 883.22C1098.93 879.88 1095.37 878.42 1095.25 878.72C1095.07 879.05 1098.19 880.93 1101.27 884.1C1104.38 887.24 1106.19 890.4 1106.52 890.23Z" />
							</g>
						</g>
					</g>
				</g>
				<g id="&lt;Group&gt;">
					<g id="&lt;Group&gt;">
						<g id="&lt;Group&gt;">
							<g id="&lt;Group&gt;">
								<path id="&lt;Path&gt;" class="shp2" d="M1112.94 886.11C1113.27 886.12 1112.91 882.03 1109.82 878.27C1106.78 874.47 1102.85 873.27 1102.79 873.59C1102.63 873.93 1106.04 875.54 1108.84 879.06C1111.71 882.53 1112.57 886.2 1112.94 886.11Z" />
							</g>
						</g>
					</g>
				</g>
				<g id="&lt;Group&gt;">
					<g id="&lt;Group&gt;">
						<g id="&lt;Group&gt;">
							<g id="&lt;Group&gt;">
								<path id="&lt;Path&gt;" class="shp2" d="M1108.71 877.24C1108.9 877.15 1107.92 875.22 1107.1 871.9C1106.69 870.25 1106.35 868.24 1106.26 866C1106.21 864.87 1106.23 863.7 1106.34 862.48C1106.38 861.9 1106.48 861.32 1106.72 860.98C1106.95 860.66 1107.27 860.58 1107.7 860.75C1108.51 861.08 1108.94 862.46 1109.32 863.55C1109.68 864.7 1109.91 865.84 1110.02 866.95C1110.24 869.16 1110.08 871.19 1109.84 872.88C1109.34 876.27 1108.67 878.32 1108.87 878.39C1109 878.43 1109.97 876.48 1110.72 873.04C1111.08 871.32 1111.35 869.2 1111.18 866.84C1111.1 865.66 1110.88 864.43 1110.5 863.19C1110.32 862.56 1110.09 861.96 1109.8 861.32C1109.51 860.7 1109.04 859.96 1108.2 859.59C1107.43 859.18 1106.17 859.44 1105.69 860.26C1105.21 861 1105.16 861.74 1105.11 862.39C1105.01 863.66 1105.02 864.89 1105.1 866.06C1105.26 868.39 1105.71 870.47 1106.24 872.14C1107.32 875.51 1108.59 877.31 1108.71 877.24Z" />
							</g>
						</g>
					</g>
				</g>
				<g id="&lt;Group&gt;">
					<g id="&lt;Group&gt;">
						<g id="&lt;Group&gt;">
							<g id="&lt;Group&gt;">
								<path id="&lt;Path&gt;" class="shp2" d="M1108.57 876.48C1108.66 876.67 1110.33 875.82 1113.2 875.12C1114.64 874.78 1116.37 874.48 1118.31 874.42C1119.28 874.4 1120.32 874.37 1121.24 874.61C1122.17 874.82 1122.89 875.4 1122.94 876.27C1123.01 877.16 1122.51 878.03 1121.74 878.53C1120.97 879.06 1120.01 879.31 1119.09 879.42C1117.23 879.64 1115.49 879.29 1114.08 878.92C1111.24 878.1 1109.5 877.35 1109.43 877.55C1109.37 877.67 1110.94 878.7 1113.81 879.77C1115.25 880.27 1117.09 880.75 1119.21 880.57C1120.25 880.48 1121.39 880.24 1122.43 879.56C1123.47 878.9 1124.32 877.6 1124.2 876.17C1124.14 874.63 1122.67 873.59 1121.53 873.41C1120.34 873.14 1119.26 873.21 1118.25 873.26C1116.22 873.39 1114.42 873.79 1112.96 874.26C1110.04 875.21 1108.49 876.36 1108.57 876.48Z" />
							</g>
						</g>
					</g>
				</g>
				<g id="&lt;Group&gt;">
					<g id="&lt;Group&gt;">
						<g id="&lt;Group&gt;">
							<g id="&lt;Group&gt;">
								<path id="&lt;Path&gt;" class="shp2" d="M1063.73 919.42C1063.81 919.53 1064.93 918.7 1065.47 916.66C1066.07 914.67 1065.7 911.6 1064.14 908.92C1063.39 907.57 1062.54 906.39 1061.75 905.36C1060.97 904.32 1060.16 903.39 1059.33 902.76C1058.5 902.12 1057.64 901.83 1057.05 901.81C1056.45 901.78 1056.15 901.93 1056.16 902C1056.16 902.2 1057.43 902.1 1058.75 903.44C1059.42 904.08 1060.09 904.98 1060.81 906.04C1061.54 907.1 1062.34 908.26 1063.03 909.53C1064.48 912.04 1064.91 914.64 1064.6 916.48C1064.34 918.33 1063.56 919.3 1063.73 919.42Z" />
							</g>
						</g>
					</g>
				</g>
				<g id="&lt;Group&gt;">
					<g id="&lt;Group&gt;">
						<g id="&lt;Group&gt;">
							<g id="&lt;Group&gt;">
								<path id="&lt;Path&gt;" class="shp2" d="M1089.33 900.29C1089.66 900.33 1089.56 896.71 1086.82 893.46C1084.11 890.18 1080.57 889.44 1080.54 889.77C1080.4 890.12 1083.42 891.3 1085.85 894.27C1088.33 897.19 1088.96 900.37 1089.33 900.29Z" />
							</g>
						</g>
					</g>
				</g>
				<g id="&lt;Group&gt;">
					<g id="&lt;Group&gt;">
						<g id="&lt;Group&gt;">
							<g id="&lt;Group&gt;">
								<path id="&lt;Path&gt;" class="shp2" d="M1140.48 887.64C1140.42 887.57 1139.33 888.37 1137.35 889.79C1135.34 891.18 1132.4 893.12 1128.56 895.18C1124.72 897.24 1119.99 899.37 1114.59 901.39C1109.19 903.41 1103.14 905.31 1096.73 907.16C1083.9 910.86 1072.29 914.23 1063.91 916.75C1059.89 917.99 1056.56 919.01 1054 919.8C1051.67 920.54 1050.39 920.99 1050.41 921.08C1050.44 921.16 1051.76 920.87 1054.13 920.27C1056.72 919.58 1060.09 918.69 1064.15 917.61C1072.6 915.31 1084.24 912.07 1097.08 908.37C1103.5 906.51 1109.58 904.57 1115 902.48C1120.42 900.38 1125.17 898.14 1128.99 895.96C1132.81 893.78 1135.71 891.7 1137.64 890.18C1139.55 888.63 1140.53 887.7 1140.48 887.64Z" />
							</g>
						</g>
					</g>
				</g>
				<g id="&lt;Group&gt;">
					<g id="&lt;Group&gt;">
						<g id="&lt;Group&gt;">
							<g id="&lt;Group&gt;">
								<path id="&lt;Path&gt;" class="shp2" d="M1143.13 888.6C1143.16 888.46 1140.92 887.63 1137.09 886.99C1133.32 886.4 1127.6 886.09 1122.1 888.82C1119.37 890.18 1117.21 892.24 1115.68 894.33C1114.14 896.43 1113.11 898.53 1112.34 900.3C1110.84 903.87 1110.22 906.17 1110.36 906.22C1110.54 906.3 1111.46 904.09 1113.15 900.68C1114.84 897.36 1117.52 892.5 1122.67 889.95C1127.79 887.4 1133.25 887.52 1136.97 887.88C1140.75 888.27 1143.08 888.8 1143.13 888.6Z" />
							</g>
						</g>
					</g>
				</g>
			</g>
			<g id="&lt;Group&gt;">
				<g id="&lt;Group&gt;">
					<g id="&lt;Group&gt;">
						<g id="&lt;Group&gt;">
							<path id="&lt;Path&gt;" class="shp6" d="M1269.53 742.32C1283.79 747.41 1290.95 757.95 1291.01 773.94C1291.13 804.57 1260.18 836.77 1198.18 870.54L1074.4 788.53L1066.65 785.39C1178.03 743.54 1245.66 729.19 1269.53 742.32Z" />
						</g>
					</g>
				</g>
				<g id="&lt;Group&gt;">
					<g id="&lt;Group&gt;">
						<g id="&lt;Group&gt;">
							<g id="&lt;Group&gt;">
								<path id="&lt;Path&gt;" class="shp6" d="M1137.1 829.95C1137.15 830.02 1138.3 829.24 1140.33 827.76C1142.35 826.29 1145.25 824.11 1148.79 821.37C1155.88 815.89 1165.52 808.13 1175.89 799.23C1186.26 790.32 1195.4 781.96 1201.88 775.78C1205.13 772.69 1207.72 770.16 1209.48 768.38C1211.24 766.6 1212.19 765.59 1212.13 765.53C1212.07 765.46 1211.01 766.36 1209.14 768.03C1207.12 769.85 1204.47 772.24 1201.28 775.13C1194.64 781.13 1185.43 789.37 1175.07 798.27C1164.71 807.16 1155.17 815.02 1148.24 820.67C1144.9 823.39 1142.13 825.65 1140.02 827.37C1138.09 828.97 1137.05 829.88 1137.1 829.95Z" />
							</g>
						</g>
					</g>
				</g>
				<g id="&lt;Group&gt;">
					<g id="&lt;Group&gt;">
						<g id="&lt;Group&gt;">
							<g id="&lt;Group&gt;">
								<path id="&lt;Path&gt;" class="shp6" d="M1234.59 759.49C1234.64 759.18 1229.12 758.64 1222.66 760.57C1216.2 762.45 1211.85 765.91 1212.06 766.14C1212.27 766.47 1216.78 763.59 1223.02 761.78C1229.25 759.91 1234.6 759.88 1234.59 759.49Z" />
							</g>
						</g>
					</g>
				</g>
				<g id="&lt;Group&gt;">
					<g id="&lt;Group&gt;">
						<g id="&lt;Group&gt;">
							<g id="&lt;Group&gt;">
								<path id="&lt;Path&gt;" class="shp6" d="M1223.93 752.25C1223.82 751.95 1219.85 753.69 1216.59 757.77C1213.3 761.81 1212.43 766.06 1212.74 766.1C1213.1 766.23 1214.45 762.37 1217.57 758.56C1220.64 754.71 1224.13 752.57 1223.93 752.25Z" />
							</g>
						</g>
					</g>
				</g>
				<g id="&lt;Group&gt;">
					<g id="&lt;Group&gt;">
						<g id="&lt;Group&gt;">
							<g id="&lt;Group&gt;">
							</g>
						</g>
					</g>
				</g>
			</g>
			<g id="&lt;Group&gt;">
				<g id="&lt;Group&gt;">
					<g id="&lt;Group&gt;">
						<g id="&lt;Group&gt;">
							<path id="&lt;Path&gt;" class="shp2" d="M1260.68 677.05L1225.47 771.91C1223.46 777.33 1218.26 780.9 1212.48 780.82L1018.65 778.27L1018.65 763.54L1090.57 766.17L1121.11 671.48C1122.14 668.28 1125.12 666.12 1128.49 666.13L1253.52 666.49C1258.96 666.5 1262.68 671.99 1260.68 677.05Z" />
							<g id="&lt;Group&gt;">
								<path id="&lt;Path&gt;" class="shp2" d="M1260.68 677.05C1260.7 676.98 1260.73 676.88 1260.77 676.75C1260.81 676.55 1260.94 676.27 1261.01 675.87C1261.19 675.09 1261.32 673.85 1260.93 672.31C1260.52 670.8 1259.52 668.95 1257.53 667.73C1256.55 667.12 1255.34 666.69 1254.01 666.61C1252.67 666.55 1251.22 666.6 1249.7 666.58C1237.48 666.57 1219.74 666.55 1197.54 666.52C1186.43 666.5 1174.2 666.48 1160.99 666.45C1154.39 666.44 1147.54 666.42 1140.46 666.41C1136.92 666.4 1133.32 666.39 1129.67 666.39C1127.84 666.29 1126.05 666.53 1124.51 667.52C1122.99 668.47 1121.82 669.98 1121.3 671.74C1112.08 700.37 1101.82 732.22 1090.86 766.26L1090.79 766.48L1090.56 766.47C1067.62 765.63 1043.46 764.76 1018.64 763.85L1018.96 763.54C1018.96 764.37 1018.96 765.27 1018.96 766.17C1018.96 770.31 1018.96 774.44 1018.96 778.27L1018.65 777.96C1062.01 778.54 1103.18 779.09 1140.54 779.59C1159.22 779.84 1176.95 780.09 1193.52 780.31C1197.67 780.37 1201.74 780.43 1205.74 780.48C1207.73 780.51 1209.71 780.54 1211.67 780.57C1213.63 780.65 1215.53 780.42 1217.31 779.74C1220.86 778.44 1223.73 775.63 1225.08 772.27C1226.37 768.82 1227.63 765.45 1228.86 762.16C1238.68 735.81 1246.62 714.54 1252.11 699.82C1254.85 692.49 1256.98 686.81 1258.44 682.92C1259.41 680.35 1260.16 678.39 1260.68 677.05C1260.21 678.41 1259.5 680.38 1258.55 682.96C1257.12 686.86 1255.03 692.56 1252.33 699.9C1246.88 714.64 1239.01 735.93 1229.27 762.31C1228.04 765.61 1226.78 768.98 1225.5 772.44C1224.11 775.92 1221.15 778.83 1217.47 780.19C1215.65 780.89 1213.63 781.13 1211.67 781.05C1209.71 781.03 1207.73 781 1205.73 780.98C1201.73 780.93 1197.66 780.88 1193.52 780.83C1176.94 780.62 1159.21 780.39 1140.53 780.16C1103.17 779.67 1062 779.14 1018.64 778.58L1018.34 778.58L1018.34 778.27C1018.34 774.44 1018.34 770.31 1018.34 766.17C1018.34 765.27 1018.34 764.37 1018.34 763.54L1018.34 763.22L1018.66 763.23C1043.49 764.14 1067.65 765.02 1090.58 765.86L1090.28 766.07C1101.27 732.04 1111.56 700.2 1120.8 671.58C1121.35 669.72 1122.61 668.09 1124.24 667.08C1125.85 666.02 1127.88 665.77 1129.67 665.87C1133.32 665.89 1136.92 665.9 1140.46 665.91C1147.54 665.94 1154.39 665.96 1160.99 665.99C1174.2 666.04 1186.43 666.09 1197.54 666.13C1219.74 666.23 1237.48 666.32 1249.7 666.37C1251.23 666.39 1252.66 666.36 1254.02 666.43C1255.38 666.52 1256.61 666.96 1257.61 667.59C1259.64 668.85 1260.64 670.75 1261.03 672.28C1261.41 673.85 1261.26 675.1 1261.06 675.88C1260.92 676.41 1260.8 676.8 1260.68 677.05Z" />
							</g>
						</g>
					</g>
				</g>
				<g id="&lt;Group&gt;">
					<g id="&lt;Group&gt;">
						<path id="&lt;Path&gt;" class="shp8" d="M1174.73 712.92C1177.25 711.22 1181.89 711.9 1184.16 713.93C1186.42 715.95 1187.15 719.46 1186 722.27C1184.85 725.08 1181.95 727.06 1178.92 727.22C1175.7 727.39 1172.34 725.37 1171.44 722.28C1170.54 719.18 1171.54 714.55 1174.73 712.92Z" />
					</g>
				</g>
			</g>
			<g id="&lt;Group&gt;">
				<g id="&lt;Group&gt;">
					<g id="&lt;Group&gt;">
						<g id="&lt;Group&gt;">
							<path id="&lt;Path&gt;" class="shp6" d="M1219.05 875.7C1102.59 801.11 1041.8 762.35 1036.65 759.42C1030.09 755.69 1012.54 744.88 995.24 749.66C977.93 754.43 962.42 769.95 954.66 792.62C950.23 805.57 948.14 827.68 947.15 844.25C945.98 864.07 952.12 883.83 965.08 898.87C970.98 905.71 978.25 911.67 986.89 914.35C988.71 914.92 990.6 915.41 992.54 915.83C1025.6 923 1059.58 908.16 1078.16 879.88L1082.24 873.67C1158.5 901.69 1197.23 915.5 1198.42 915.1L1219.05 875.7Z" />
						</g>
					</g>
				</g>
				<g id="&lt;Group&gt;">
					<path id="&lt;Path&gt;" class="shp6" d="M1045.67 765.62C1045.66 765.63 1045.51 765.55 1045.23 765.36C1044.91 765.14 1044.51 764.87 1044.01 764.53C1042.94 763.79 1041.37 762.7 1039.29 761.36C1035.15 758.72 1029.01 754.95 1020.74 751.94C1016.61 750.47 1011.9 749.28 1006.77 748.99C1001.64 748.77 996.1 749.54 990.7 751.61C985.29 753.64 980.03 756.87 975.25 760.98C972.86 763.03 970.55 765.29 968.4 767.72C966.27 770.16 964.39 772.89 962.73 775.79C959.41 781.59 956.95 787.72 955.19 793.78C953.55 799.87 952.23 805.9 950.97 811.58C948.48 822.98 947.13 833.42 946.95 842.23C946.81 851.04 947.7 858.15 948.54 863C948.92 865.44 949.36 867.31 949.62 868.58C949.73 869.17 949.83 869.65 949.9 870.03C949.96 870.36 949.98 870.53 949.97 870.54C949.95 870.54 949.89 870.38 949.8 870.06C949.7 869.68 949.57 869.21 949.41 868.63C949.09 867.37 948.59 865.51 948.14 863.08C947.17 858.23 946.17 851.09 946.21 842.22C946.3 833.35 947.58 822.82 950.03 811.38C951.27 805.66 952.55 799.69 954.21 793.5C955.98 787.36 958.45 781.17 961.82 775.27C963.51 772.32 965.43 769.54 967.62 767.03C969.82 764.56 972.16 762.29 974.59 760.2C979.45 756.04 984.82 752.76 990.36 750.72C995.89 748.62 1001.57 747.87 1006.81 748.13C1012.06 748.46 1016.83 749.71 1020.99 751.25C1029.32 754.38 1035.42 758.27 1039.51 761.03C1041.56 762.41 1043.1 763.56 1044.14 764.36C1044.61 764.73 1044.99 765.03 1045.3 765.28C1045.56 765.49 1045.68 765.6 1045.67 765.62Z" />
				</g>
				<g id="&lt;Group&gt;">
					<g id="&lt;Group&gt;">
						<g id="&lt;Group&gt;">
							<g id="&lt;Group&gt;">
								<path id="&lt;Path&gt;" class="shp6" d="M1002.7 844.13C1002.91 844.24 1003.23 844.38 1003.66 844.55C1004.35 844.83 1005.3 845.2 1006.52 845.69C1009.1 846.68 1012.82 848.12 1017.6 849.96C1027.33 853.62 1041.36 858.91 1058.81 865.48C1076.31 872.01 1097.27 879.77 1120.79 888.33C1144.32 896.88 1170.39 906.27 1198.22 915.69L1198.73 915.87L1198.98 915.39C1203.35 907.04 1207.96 898.24 1212.64 889.3C1215.03 884.74 1217.39 880.22 1219.6 875.99L1219.87 875.48L1219.39 875.17C1166.88 841.84 1119.9 812.02 1085.99 790.49C1069.06 779.81 1055.4 771.2 1045.92 765.22C1041.23 762.29 1037.57 760.01 1035.04 758.43C1033.83 757.68 1032.88 757.11 1032.2 756.69C1031.77 756.43 1031.44 756.25 1031.21 756.13C1031.41 756.29 1031.72 756.52 1032.13 756.79C1032.8 757.24 1033.72 757.85 1034.91 758.63C1037.41 760.26 1041.03 762.61 1045.67 765.62C1055.1 771.68 1068.69 780.41 1085.53 791.22C1119.38 812.83 1166.28 842.77 1218.71 876.23L1218.49 875.41C1216.28 879.63 1213.91 884.16 1211.52 888.71C1206.85 897.65 1202.24 906.46 1197.87 914.81L1198.62 914.51C1170.8 905.11 1144.72 895.77 1121.17 887.28C1097.67 878.73 1076.67 871.09 1059.1 864.69C1041.6 858.27 1027.52 853.11 1017.76 849.53C1012.95 847.78 1009.2 846.41 1006.6 845.47C1005.36 845.03 1004.4 844.69 1003.7 844.44C1003.26 844.29 1002.93 844.19 1002.7 844.13Z" />
							</g>
						</g>
					</g>
				</g>
			</g>
			<g id="&lt;Group&gt;">
				<path id="&lt;Path&gt;" class="shp14" d="M1011.74 472.93C1008.69 466.94 1005.62 460.89 1003.98 454.36C1002.34 447.84 1002.23 440.72 1005.01 434.6C1006.64 431.02 1009.2 427.88 1010.47 424.16C1012.23 419.05 1011.51 413.01 1014.68 408.62C1019.63 401.77 1030.23 403.37 1037.88 399.78C1043.85 396.98 1048.01 390.95 1054.28 388.94C1059.76 387.18 1065.74 388.87 1071.02 391.13C1076.31 393.4 1081.47 396.28 1087.18 397.03C1091.24 397.56 1095.37 396.97 1099.47 397.06C1103.57 397.15 1107.93 398.06 1110.81 400.97C1113.7 403.89 1114.31 409.27 1111.18 411.92C1118.36 410.7 1125.11 417.87 1125.02 425.14C1124.93 432.42 1119.45 438.82 1112.83 441.85C1106.21 444.88 1098.65 445.07 1091.4 444.51C1070.86 442.91 1050.22 435.1 1036.24 419.97" />
				<g id="&lt;Group&gt;">
					<g id="&lt;Group&gt;">
						<g id="&lt;Group&gt;">
							<g id="&lt;Group&gt;">
								<g id="&lt;Group&gt;">
									<g id="&lt;Group&gt;">
										<g id="&lt;Group&gt;">
											<g id="&lt;Group&gt;">
												<g id="&lt;Group&gt;">
													<g id="&lt;Group&gt;">
														<g id="&lt;Group&gt;">
															<g id="&lt;Group&gt;">
																<g id="&lt;Group&gt;">
																	<g id="&lt;Group&gt;">
																		<g id="&lt;Group&gt;">
																			<g id="&lt;Group&gt;">
																				<path id="&lt;Path&gt;" class="shp15" d="M1016.17 447.23L1002.17 548.93C999.79 566.23 1012.37 581.99 1029.76 583.52C1045.99 584.94 1060.48 573.35 1062.68 557.21C1063.73 549.55 1064.62 543.17 1064.78 542.39C1082.26 543.14 1092.8 535.06 1096.39 518.15C1099 505.89 1102.32 480.21 1105.05 456.93C1107.98 431.94 1091.19 408.89 1066.51 403.96L1064.06 403.47C1037.29 399.73 1019.16 420.38 1016.17 447.23Z" />
																			</g>
																		</g>
																	</g>
																</g>
															</g>
														</g>
													</g>
												</g>
											</g>
											<g id="&lt;Group&gt;">
												<g id="&lt;Group&gt;">
													<g id="&lt;Group&gt;">
														<g id="&lt;Group&gt;">
															<g id="&lt;Group&gt;">
																<g id="&lt;Group&gt;">
																	<g id="&lt;Group&gt;">
																		<g id="&lt;Group&gt;">
																			<g id="&lt;Group&gt;">
																				<path id="&lt;Path&gt;" class="shp16" d="M1064.89 542.03C1054 540.76 1043.58 535.41 1033.62 525.99C1036.41 539.23 1046.41 546.78 1063.63 548.63L1064.89 542.03Z" />
																			</g>
																		</g>
																	</g>
																</g>
															</g>
														</g>
													</g>
												</g>
											</g>
										</g>
									</g>
								</g>
								<g id="&lt;Group&gt;">
									<g id="&lt;Group&gt;">
										<g id="&lt;Group&gt;">
											<g id="&lt;Group&gt;">
												<g id="&lt;Group&gt;">
													<g id="&lt;Group&gt;">
														<g id="&lt;Group&gt;">
															<g id="&lt;Group&gt;">
																<g id="&lt;Group&gt;">
																	<g id="&lt;Group&gt;">
																		<g id="&lt;Group&gt;">
																			<g id="&lt;Group&gt;">
																				<g id="&lt;Group&gt;">
																					<g id="&lt;Group&gt;">
																						<g id="&lt;Group&gt;">
																							<path id="&lt;Path&gt;" class="shp2" d="M1093.64 478.55C1093.33 480.49 1091.43 481.81 1089.41 481.52C1087.39 481.23 1086 479.43 1086.32 477.5C1086.63 475.57 1088.53 474.24 1090.55 474.53C1092.57 474.82 1093.96 476.62 1093.64 478.55Z" />
																						</g>
																					</g>
																				</g>
																			</g>
																		</g>
																	</g>
																</g>
															</g>
														</g>
														<g id="&lt;Group&gt;">
															<g id="&lt;Group&gt;">
																<g id="&lt;Group&gt;">
																	<g id="&lt;Group&gt;">
																		<g id="&lt;Group&gt;">
																			<g id="&lt;Group&gt;">
																				<g id="&lt;Group&gt;">
																					<g id="&lt;Group&gt;">
																						<g id="&lt;Group&gt;">
																							<g id="&lt;Group&gt;">
																								<path id="&lt;Path&gt;" class="shp2" d="M1097.09 468.32C1096.54 468.71 1094.2 466.12 1090.29 465.35C1086.39 464.52 1083.13 465.96 1082.8 465.4C1082.63 465.15 1083.26 464.38 1084.69 463.72C1086.1 463.06 1088.37 462.6 1090.81 463.1C1093.24 463.6 1095.11 464.9 1096.1 466.06C1097.12 467.22 1097.35 468.16 1097.09 468.32Z" />
																							</g>
																						</g>
																					</g>
																				</g>
																			</g>
																		</g>
																	</g>
																</g>
															</g>
														</g>
													</g>
													<g id="&lt;Group&gt;">
														<g id="&lt;Group&gt;">
															<g id="&lt;Group&gt;">
																<g id="&lt;Group&gt;">
																	<g id="&lt;Group&gt;">
																		<g id="&lt;Group&gt;">
																			<g id="&lt;Group&gt;">
																				<g id="&lt;Group&gt;">
																					<g id="&lt;Group&gt;">
																						<g id="&lt;Group&gt;">
																							<path id="&lt;Path&gt;" class="shp2" d="M1057.19 472.26C1056.88 474.19 1054.98 475.52 1052.96 475.23C1050.94 474.93 1049.56 473.14 1049.87 471.2C1050.19 469.27 1052.08 467.95 1054.1 468.24C1056.13 468.53 1057.51 470.33 1057.19 472.26Z" />
																						</g>
																					</g>
																				</g>
																			</g>
																		</g>
																	</g>
																</g>
															</g>
														</g>
														<g id="&lt;Group&gt;">
															<g id="&lt;Group&gt;">
																<g id="&lt;Group&gt;">
																	<g id="&lt;Group&gt;">
																		<g id="&lt;Group&gt;">
																			<g id="&lt;Group&gt;">
																				<g id="&lt;Group&gt;">
																					<g id="&lt;Group&gt;">
																						<g id="&lt;Group&gt;">
																							<g id="&lt;Group&gt;">
																								<path id="&lt;Path&gt;" class="shp2" d="M1058.53 461.38C1057.98 461.76 1055.64 459.17 1051.73 458.4C1047.84 457.58 1044.57 459.02 1044.24 458.45C1044.07 458.2 1044.7 457.44 1046.13 456.78C1047.54 456.12 1049.81 455.66 1052.25 456.15C1054.68 456.65 1056.55 457.96 1057.54 459.11C1058.55 460.27 1058.79 461.21 1058.53 461.38Z" />
																							</g>
																						</g>
																					</g>
																				</g>
																			</g>
																		</g>
																	</g>
																</g>
															</g>
														</g>
													</g>
													<g id="&lt;Group&gt;">
														<g id="&lt;Group&gt;">
															<g id="&lt;Group&gt;">
																<g id="&lt;Group&gt;">
																	<g id="&lt;Group&gt;">
																		<g id="&lt;Group&gt;">
																			<g id="&lt;Group&gt;">
																				<g id="&lt;Group&gt;">
																					<g id="&lt;Group&gt;">
																						<g id="&lt;Group&gt;">
																							<path id="&lt;Path&gt;" class="shp2" d="M1066.92 493.19C1066.95 492.97 1069.46 493.03 1073.5 493.31C1074.52 493.41 1075.5 493.4 1075.8 492.75C1076.18 492.08 1075.98 490.92 1075.73 489.66C1075.27 487.06 1074.8 484.33 1074.3 481.48C1072.36 469.84 1071.17 460.35 1071.64 460.28C1072.11 460.2 1074.06 469.57 1076 481.21C1076.45 484.08 1076.89 486.81 1077.3 489.42C1077.45 490.63 1077.84 492.05 1077.03 493.44C1076.61 494.13 1075.77 494.53 1075.1 494.57C1074.42 494.64 1073.86 494.54 1073.36 494.47C1069.35 493.89 1066.89 493.42 1066.92 493.19Z" />
																						</g>
																					</g>
																				</g>
																			</g>
																		</g>
																	</g>
																</g>
															</g>
														</g>
													</g>
													<g id="&lt;Group&gt;">
														<g id="&lt;Group&gt;">
															<g id="&lt;Group&gt;">
																<g id="&lt;Group&gt;">
																	<g id="&lt;Group&gt;">
																		<g id="&lt;Group&gt;">
																			<g id="&lt;Group&gt;">
																				<g id="&lt;Group&gt;">
																					<g id="&lt;Group&gt;">
																						<g id="&lt;Group&gt;">
																							<path id="&lt;Path&gt;" class="shp2" d="M1054.88 493.6C1055.52 493.69 1054.68 497.93 1057.71 501.67C1060.73 505.41 1065.35 505.84 1065.27 506.44C1065.27 506.72 1064.09 507.06 1062.18 506.73C1060.29 506.42 1057.68 505.27 1055.82 502.99C1053.98 500.7 1053.52 498.05 1053.72 496.28C1053.91 494.47 1054.6 493.51 1054.88 493.6Z" />
																						</g>
																					</g>
																				</g>
																			</g>
																		</g>
																	</g>
																</g>
															</g>
														</g>
													</g>
												</g>
											</g>
										</g>
										<g id="&lt;Group&gt;">
											<g id="&lt;Group&gt;">
												<g id="&lt;Group&gt;">
													<g id="&lt;Group&gt;">
														<g id="&lt;Group&gt;">
															<g id="&lt;Group&gt;">
																<g id="&lt;Group&gt;">
																	<g id="&lt;Group&gt;">
																		<g id="&lt;Group&gt;">
																			<path id="&lt;Path&gt;" class="shp14" d="M1062.6 446.26C1062 447.25 1058.2 445.97 1053.51 445.6C1048.82 445.15 1044.85 445.75 1044.43 444.67C1044.25 444.16 1045.1 443.29 1046.8 442.56C1048.49 441.83 1051.04 441.33 1053.86 441.57C1056.67 441.82 1059.1 442.76 1060.64 443.77C1062.19 444.79 1062.87 445.79 1062.6 446.26Z" />
																		</g>
																	</g>
																</g>
															</g>
														</g>
													</g>
												</g>
											</g>
										</g>
										<g id="&lt;Group&gt;">
											<g id="&lt;Group&gt;">
												<g id="&lt;Group&gt;">
													<g id="&lt;Group&gt;">
														<g id="&lt;Group&gt;">
															<g id="&lt;Group&gt;">
																<g id="&lt;Group&gt;">
																	<g id="&lt;Group&gt;">
																		<g id="&lt;Group&gt;">
																			<path id="&lt;Path&gt;" class="shp14" d="M1097.91 456.73C1097.05 457.48 1094.54 456.02 1091.31 455.33C1088.11 454.52 1085.21 454.73 1084.77 453.67C1084.58 453.17 1085.19 452.37 1086.56 451.77C1087.9 451.16 1090.01 450.87 1092.23 451.39C1094.44 451.9 1096.2 453.09 1097.15 454.22C1098.11 455.36 1098.3 456.35 1097.91 456.73Z" />
																		</g>
																	</g>
																</g>
															</g>
														</g>
													</g>
												</g>
											</g>
										</g>
									</g>
								</g>
							</g>
						</g>
					</g>
					<g id="&lt;Group&gt;">
						<g id="&lt;Group&gt;">
							<g id="&lt;Group&gt;">
								<g id="&lt;Group&gt;">
									<g id="&lt;Group&gt;">
										<g id="&lt;Group&gt;">
											<g id="&lt;Group&gt;">
												<g id="&lt;Group&gt;">
													<g id="&lt;Group&gt;">
														<g id="&lt;Group&gt;">
															<path id="&lt;Path&gt;" class="shp15" d="M1014.48 466.48C1014.08 466.2 998.04 457.82 995.12 475.32C992.2 492.81 1010.37 492.13 1010.49 491.64C1010.56 491.3 1011.89 482.92 1014.48 466.48Z" />
														</g>
													</g>
												</g>
											</g>
										</g>
									</g>
								</g>
							</g>
						</g>
						<g id="&lt;Group&gt;">
							<g id="&lt;Group&gt;">
								<g id="&lt;Group&gt;">
									<g id="&lt;Group&gt;">
										<g id="&lt;Group&gt;">
											<g id="&lt;Group&gt;">
												<g id="&lt;Group&gt;">
													<g id="&lt;Group&gt;">
														<g id="&lt;Group&gt;">
															<g id="&lt;Group&gt;">
																<path id="&lt;Path&gt;" class="shp16" d="M1006.25 484.12C1006.18 484.05 1005.91 484.28 1005.35 484.43C1004.81 484.57 1003.92 484.59 1003.07 484.1C1001.33 483.11 1000.26 479.91 1000.7 476.75C1000.93 475.15 1001.51 473.69 1002.29 472.53C1003.03 471.33 1004.01 470.58 1004.97 470.57C1005.93 470.51 1006.5 471.18 1006.63 471.7C1006.78 472.23 1006.61 472.56 1006.7 472.61C1006.74 472.66 1007.12 472.38 1007.1 471.63C1007.09 471.27 1006.95 470.83 1006.6 470.42C1006.23 470.01 1005.65 469.73 1004.99 469.69C1003.62 469.56 1002.2 470.6 1001.35 471.88C1000.42 473.14 999.73 474.78 999.48 476.58C999 480.12 1000.26 483.72 1002.67 484.87C1003.84 485.4 1004.93 485.2 1005.53 484.88C1006.14 484.53 1006.3 484.16 1006.25 484.12Z" />
															</g>
														</g>
													</g>
												</g>
											</g>
										</g>
									</g>
								</g>
							</g>
						</g>
					</g>
					<g id="&lt;Group&gt;">
						<g id="&lt;Group&gt;">
							<path id="&lt;Path&gt;" class="shp14" d="M1110.08 433.31C1107.08 439.78 1091.64 442.28 1080.33 438.86C1069.89 435.71 1066.11 429.09 1059.47 423.32C1055.27 419.66 1055.27 419.66 1048.42 418.96C1042.88 418.38 1038.43 423.9 1034.25 427.57C1036.58 441.47 1030.39 455.24 1024.37 467.99C1023.7 469.4 1022.94 470.91 1021.54 471.59C1019.17 472.76 1016.34 470.91 1014.92 468.68C1012.65 465.1 1012.38 460.64 1012.47 456.4C1012.66 446.75 1014.35 437.05 1018.27 428.24C1022.19 419.42 1028.41 411.5 1036.56 406.33C1046.74 399.87 1059.57 398.03 1071.36 400.57C1083.15 403.12 1093.85 409.87 1101.86 418.88C1105.58 423.06 1108.82 427.86 1110.08 433.31Z" />
						</g>
					</g>
				</g>
				<g id="&lt;Group&gt;">
					<g id="&lt;Group&gt;">
						<g id="&lt;Group&gt;">
							<path id="&lt;Path&gt;" class="shp2" d="M1074.49 475.61C1074.64 475.62 1074.59 474.1 1075.28 471.54C1075.98 469.03 1077.69 465.36 1081.48 462.55C1085.13 459.73 1091.15 458.15 1096.96 460.32C1099.83 461.36 1102.56 463.31 1104.49 466.01C1106.49 468.67 1107.61 472.09 1107.64 475.61C1107.61 479.13 1106.49 482.54 1104.49 485.2C1102.56 487.9 1099.83 489.86 1096.96 490.9C1091.15 493.07 1085.13 491.49 1081.48 488.67C1077.69 485.85 1075.98 482.18 1075.28 479.67C1074.59 477.12 1074.64 475.6 1074.49 475.61C1074.44 475.61 1074.41 475.98 1074.4 476.7C1074.38 477.41 1074.46 478.47 1074.75 479.81C1075.3 482.44 1076.94 486.37 1080.87 489.46C1084.67 492.56 1091.09 494.4 1097.41 492.12C1100.51 491.03 1103.49 488.94 1105.61 486.02C1107.79 483.15 1109.02 479.43 1109.05 475.61C1109.02 471.78 1107.79 468.07 1105.61 465.19C1103.49 462.28 1100.51 460.18 1097.41 459.1C1091.1 456.82 1084.67 458.66 1080.87 461.75C1076.94 464.85 1075.3 468.78 1074.75 471.41C1074.46 472.74 1074.38 473.81 1074.4 474.52C1074.41 475.24 1074.44 475.61 1074.49 475.61Z" />
						</g>
					</g>
					<g id="&lt;Group&gt;">
						<g id="&lt;Group&gt;">
							<path id="&lt;Path&gt;" class="shp2" d="M1032.99 468.36C1033.14 468.37 1033.09 466.85 1033.78 464.3C1034.48 461.79 1036.19 458.12 1039.98 455.3C1043.63 452.48 1049.65 450.9 1055.46 453.07C1058.33 454.11 1061.06 456.07 1062.99 458.77C1064.99 461.43 1066.11 464.84 1066.14 468.36C1066.11 471.88 1064.99 475.29 1062.99 477.96C1061.06 480.66 1058.33 482.61 1055.46 483.65C1049.65 485.82 1043.63 484.24 1039.98 481.42C1036.19 478.6 1034.48 474.94 1033.78 472.43C1033.09 469.87 1033.14 468.35 1032.99 468.36C1032.94 468.36 1032.91 468.73 1032.9 469.45C1032.88 470.16 1032.96 471.23 1033.25 472.56C1033.8 475.19 1035.44 479.12 1039.37 482.22C1043.17 485.31 1049.59 487.15 1055.91 484.87C1059.02 483.79 1061.99 481.69 1064.11 478.78C1066.29 475.9 1067.52 472.18 1067.55 468.36C1067.52 464.54 1066.29 460.82 1064.11 457.94C1061.99 455.03 1059.01 452.94 1055.91 451.85C1049.6 449.58 1043.17 451.41 1039.37 454.51C1035.44 457.6 1033.8 461.53 1033.25 464.16C1032.96 465.5 1032.88 466.56 1032.9 467.27C1032.91 467.99 1032.94 468.36 1032.99 468.36Z" />
						</g>
					</g>
					<g id="&lt;Group&gt;">
						<g id="&lt;Group&gt;">
							<path id="&lt;Path&gt;" class="shp2" d="M1067.18 468.95C1067.35 469.3 1069.58 468.26 1072.17 469.05C1074.76 469.82 1076.04 471.92 1076.38 471.72C1076.55 471.64 1076.47 470.98 1075.88 470.1C1075.31 469.22 1074.16 468.18 1072.57 467.7C1070.98 467.22 1069.45 467.46 1068.49 467.87C1067.52 468.29 1067.08 468.8 1067.18 468.95Z" />
						</g>
					</g>
					<g id="&lt;Group&gt;">
						<g id="&lt;Group&gt;">
							<path id="&lt;Path&gt;" class="shp2" d="M1009.48 463.88C1009.48 464.27 1015.06 464.51 1021.94 464.41C1028.82 464.31 1034.38 463.92 1034.38 463.53C1034.37 463.14 1028.8 462.9 1021.92 463C1015.04 463.09 1009.47 463.49 1009.48 463.88Z" />
						</g>
					</g>
				</g>
				<g id="&lt;Group&gt;">
					<path id="&lt;Path&gt;" class="shp8" d="M1118.25 416.62C1118.28 417.03 1118.19 417.58 1117.98 418.28C1117.67 419.33 1116.86 420.78 1115.36 422.05C1113.88 423.34 1111.64 424.34 1109.07 424.62C1106.48 424.94 1103.64 424.63 1100.72 424.19C1094.86 423.33 1089.62 422.17 1085.87 421.19C1084 420.7 1082.49 420.27 1081.45 419.95C1081.03 419.82 1080.64 419.7 1080.26 419.58C1079.99 419.48 1079.85 419.43 1079.86 419.42C1079.86 419.4 1080.01 419.43 1080.29 419.49C1080.67 419.59 1081.07 419.69 1081.5 419.8C1082.79 420.12 1084.26 420.49 1085.94 420.91C1089.71 421.81 1094.94 422.92 1100.78 423.78C1103.69 424.22 1106.5 424.53 1109.02 424.24C1111.54 423.98 1113.71 423.05 1115.17 421.82C1116.66 420.61 1117.48 419.24 1117.83 418.23C1118.19 417.22 1118.2 416.61 1118.25 416.62Z" />
				</g>
				<g id="&lt;Group&gt;">
					<path id="&lt;Path&gt;" class="shp8" d="M1122.13 420.59C1122.01 421.89 1121.51 423.48 1120.63 425.37C1119.34 428.18 1116.7 431.83 1112.58 434.3C1108.45 436.76 1103.99 437.36 1100.9 437.17C1098.82 437.05 1097.18 436.73 1095.98 436.22C1095.99 436.19 1096.45 436.3 1097.3 436.47C1098.14 436.64 1099.38 436.82 1100.91 436.87C1103.96 436.99 1108.33 436.35 1112.37 433.94C1116.4 431.53 1119.03 427.98 1120.37 425.24C1121.05 423.87 1121.48 422.69 1121.73 421.87C1121.98 421.04 1122.1 420.58 1122.13 420.59Z" />
				</g>
			</g>
		</g>
	</g>
</svg>