<svg version="1.2" baseProfile="tiny-ps" xmlns="http://www.w3.org/2000/svg" viewBox="0 0 1500 1000" width="1500" height="1000">
	<title>4816378-ai</title>
	<style>
		tspan { white-space:pre }
		.shp0 { fill: #212b4d;stroke: #765e69;stroke-width: 4.569 } 
		.shp1 { fill: #fea8ae } 
		.shp2 { fill: #314584 } 
		.shp3 { opacity: 0.4;fill: #1a2341 } 
		.shp4 { opacity: 0.102;fill: #352c38 } 
		.shp5 { fill: #1d2749 } 
		.shp6 { opacity: 0.302;fill: #161826 } 
		.shp7 { fill: none;stroke: #ffffff;stroke-linecap:round;stroke-width: 1.967 } 
		.shp8 { fill: #352c38 } 
		.shp9 { fill: #ffac9d } 
		.shp10 { fill: #dd938a } 
		.shp11 { fill: #804000 } 
		.shp12 { fill: #ffffff } 
		.shp13 { fill: #e27c71 } 
		.shp14 { fill: #f3faff } 
		.shp15 { fill: #eaf5f9 } 
		.shp16 { fill: #ff3946 } 
		.shp17 { fill: none;stroke: #ffffff;stroke-linecap:round;stroke-linejoin:round;stroke-width: 6.797 } 
		.shp18 { fill: none;stroke: #ffffff;stroke-width: 7.145 } 
		.shp19 { fill: none;stroke: #ffffff;stroke-width: 5.151 } 
		.shp20 { fill: none;stroke: #ffffff;stroke-width: 7.727 } 
		.shp21 { fill: none;stroke: #ffffff;stroke-linecap:round;stroke-linejoin:round;stroke-width: 6 } 
	</style>
	<g id="BACKGROUND">
	</g>
	<g id="OBJECTS">
		<g id="&lt;Group&gt;">
			<g id="&lt;Group&gt;">
				<g id="&lt;Group&gt;">
					<path id="&lt;Path&gt;" class="shp0" d="M1069.45 858.3C1069.45 866.71 1062.63 873.53 1054.22 873.53L311.02 873.53C302.61 873.53 295.79 866.71 295.79 858.3L295.79 322.22C295.79 313.81 302.61 306.99 311.02 306.99L1054.22 306.99C1062.63 306.99 1069.45 313.81 1069.45 322.22L1069.45 858.3Z" />
					<path id="&lt;Path&gt;" class="shp1" d="M1041.28 816.55L324 816.55L324 336.85L1041.28 336.85L1041.28 816.55Z" />
				</g>
				<g id="&lt;Group&gt;">
					<path id="&lt;Path&gt;" class="shp2" d="M1199 847.68L1183.77 847.68L185.48 847.68L170.25 847.68C166.05 847.68 162.64 851.09 162.64 855.29L162.64 872.04C162.64 872.74 162.76 873.4 162.94 874.04C164.63 884.98 174.07 893.37 185.48 893.37L1183.77 893.37C1195.18 893.37 1204.61 884.98 1206.31 874.04C1206.49 873.4 1206.61 872.74 1206.61 872.04L1206.61 855.29C1206.61 851.09 1203.2 847.68 1199 847.68Z" />
					<path id="&lt;Path&gt;" class="shp3" d="M551.82 847.68C553.49 863.33 566.73 875.53 582.83 875.53L782.42 875.53C798.51 875.53 811.76 863.33 813.42 847.68L551.82 847.68Z" />
				</g>
			</g>
			<path id="&lt;Path&gt;" class="shp4" d="M1227.89 903.73C1226.38 903.73 1224.89 903.74 1223.38 903.74C1230.26 901.6 1233.9 899.38 1233.9 897.11C1233.9 878.36 987.82 863.16 684.27 863.16C380.72 863.16 134.64 878.36 134.64 897.11C134.64 915.86 380.72 931.06 684.27 931.06C833.59 931.06 968.97 927.38 1068.02 921.41C1064.06 923.48 1061.9 925.66 1061.9 927.92C1061.9 941.28 1136.22 952.11 1227.89 952.11C1319.57 952.11 1393.88 941.28 1393.88 927.92C1393.88 914.56 1319.57 903.73 1227.89 903.73Z" />
		</g>
		<g id="&lt;Group&gt;">
			<g id="&lt;Group&gt;">
				<g id="&lt;Group&gt;">
					<g id="&lt;Group&gt;">
						<g id="&lt;Group&gt;">
							<g id="&lt;Group&gt;">
								<path id="&lt;Path&gt;" class="shp5" d="M1188 876.59L1185.62 928.99C1093.32 955.15 1083.7 950.31 1156.75 914.47L1157.78 843.98L1188 876.59Z" />
								<path id="&lt;Path&gt;" class="shp6" d="M1173.54 914.96C1177.04 914.94 1180.36 914.85 1184.29 914.18L1186 876.59L1155.78 843.98L1154.79 911.9C1160.84 914.17 1167.11 914.98 1173.54 914.96Z" />
							</g>
							<g id="&lt;Group&gt;">
								<path id="&lt;Path&gt;" class="shp5" d="M1137.88 923.04C1088.21 949.34 1121.89 944.12 1151.91 937.14C1149.01 930.74 1144.6 925.33 1137.88 923.04Z" />
								<g id="&lt;Group&gt;">
									<path id="&lt;Path&gt;" class="shp5" d="M1113.59 938.57C1105.11 948.05 1128.49 945.04 1183.74 929.55L1183.86 926.53C1177.26 928.37 1117.51 944.8 1113.59 938.57Z" />
								</g>
								<g id="&lt;Group&gt;">
									<path id="&lt;Path&gt;" class="shp7" d="M1152.61 914.25C1157.24 914.14 1160.58 915.55 1162.64 918.47" />
									<path id="&lt;Path&gt;" class="shp7" d="M1147.03 917.57C1151.65 917.46 1154.99 918.87 1157.05 921.79" />
									<path id="&lt;Path&gt;" class="shp7" d="M1140.75 921.04C1145.38 920.94 1148.72 922.35 1150.77 925.27" />
								</g>
							</g>
						</g>
						<g id="&lt;Group&gt;">
							<g id="&lt;Group&gt;">
								<path id="&lt;Path&gt;" class="shp5" d="M1273.49 874.6L1278.76 926.8C1372.37 948.05 1381.71 942.71 1306.78 910.78L1301.86 840.45L1273.49 874.6Z" />
								<path id="&lt;Path&gt;" class="shp6" d="M1288.05 912.26C1284.56 912.43 1281.23 912.51 1277.27 912.04L1273.49 874.6L1301.86 840.45L1306.6 908.21C1300.69 910.81 1294.47 911.95 1288.05 912.26Z" />
							</g>
							<g id="&lt;Group&gt;">
								<path id="&lt;Path&gt;" class="shp5" d="M1325.8 919.23C1319.13 921.39 1313.99 927.44 1316.64 934.26C1344.83 938.92 1371.29 940.56 1325.8 919.23Z" />
								<g id="&lt;Group&gt;">
									<path id="&lt;Path&gt;" class="shp5" d="M1349.22 932.67C1358.21 941.69 1334.69 939.92 1278.67 927.37L1278.38 924.36C1285.08 925.85 1345.65 939.1 1349.22 932.67Z" />
								</g>
								<g id="&lt;Group&gt;">
									<path id="&lt;Path&gt;" class="shp7" d="M1308.91 910.44C1304.28 910.58 1301.02 912.16 1299.13 915.19" />
									<path id="&lt;Path&gt;" class="shp7" d="M1314.67 913.46C1310.04 913.6 1306.78 915.19 1304.89 918.21" />
									<path id="&lt;Path&gt;" class="shp7" d="M1321.12 916.6C1316.5 916.74 1313.24 918.33 1311.35 921.35" />
								</g>
							</g>
						</g>
					</g>
					<g id="&lt;Group&gt;">
						<g id="&lt;Group&gt;">
							<path id="&lt;Path&gt;" class="shp2" d="M1159.95 454.64C1145.51 621.48 1142.02 772.13 1149.47 906.6C1168.54 912.82 1181 913.33 1186.87 908.14C1193.27 860.06 1192.15 767.28 1201.82 697.69C1207.88 654.01 1214.3 606.34 1221.05 554.69L1226.7 555.47C1253.1 773.1 1268.24 889.85 1272.11 905.71C1291.99 910.23 1305.24 908.2 1311.87 899.62C1304.08 643.75 1296.85 494.66 1290.17 452.36C1281.42 396.95 1238.01 397.71 1159.95 454.64Z" />
							<path id="&lt;Path&gt;" class="shp4" d="M1154.12 537.25C1148.65 627.7 1142.3 777.15 1149.47 906.6C1168.54 912.82 1181 913.33 1186.87 908.14C1193.27 860.06 1192.15 767.28 1201.82 697.69C1210.32 636.44 1219.73 564.74 1220.92 555.66C1197.58 552.86 1174.92 547.38 1154.12 537.25Z" />
						</g>
						<g id="&lt;Group&gt;">
							<path id="&lt;Path&gt;" class="shp8" d="M1183.21 439.8C1174 445.11 1166.25 450.05 1159.95 454.64C1159.1 464.52 1158.08 477.88 1156.89 494.73C1162.47 496.37 1170.3 498.48 1179.77 500.52C1180.75 480.27 1181.82 460.03 1183.21 439.8Z" />
							<path id="&lt;Path&gt;" class="shp8" d="M1255.9 416.19C1237.37 414.7 1214.74 423.33 1196.11 432.81C1194.41 456.16 1193.19 479.55 1192.06 502.93C1211.05 506.3 1234.45 508.76 1258.93 507.37C1258.08 476.97 1256.81 446.58 1255.9 416.19Z" />
							<path id="&lt;Path&gt;" class="shp8" d="M1271.34 506.31C1279.17 505.43 1287.06 504.15 1294.89 502.3C1293.31 479.71 1291.72 462.19 1290.17 452.36C1287.25 433.89 1279.19 423.76 1268.43 419.15C1269.33 448.2 1270.51 477.26 1271.34 506.31Z" />
						</g>
						<g id="&lt;Group&gt;">
							<path id="&lt;Path&gt;" class="shp2" d="M1269.31 905.32C1284.74 912.62 1300.35 910.51 1316.15 898.97L1314.5 879.94C1301.64 883.79 1285.66 885.71 1266.55 885.71L1269.31 905.32Z" />
							<path id="&lt;Path&gt;" class="shp2" d="M1188.7 909.93C1176.78 914.93 1162.17 913.08 1144.86 904.38L1144.75 883.99C1157.27 887.08 1172.58 887.88 1190.67 886.39L1188.7 909.93Z" />
						</g>
					</g>
				</g>
				<g id="&lt;Group&gt;">
					<g id="&lt;Group&gt;">
						<path id="&lt;Path&gt;" class="shp9" d="M1273.62 188.89C1263.16 224.96 1265.25 246.09 1279.87 252.27C1301.8 261.55 1345.12 264.38 1345.94 304.85C1346.48 331.83 1282.3 331.11 1153.41 302.7C1153.26 272.47 1165.97 256.18 1191.52 253.81C1229.86 250.27 1220.51 245.83 1223.34 202.51C1225.23 173.63 1241.99 169.09 1273.62 188.89Z" />
						<path id="&lt;Path&gt;" class="shp10" d="M1268.53 231.91C1260.32 239.93 1250.58 246 1238.63 247.8C1231.6 248.85 1223.96 249.11 1216.29 248.47C1224.93 242.87 1221.46 231.25 1223.34 202.51C1225.23 173.63 1241.99 169.09 1273.62 188.89C1268.95 205.03 1267.25 219.37 1268.53 231.91Z" />
					</g>
					<g id="&lt;Group&gt;">
						<path id="&lt;Path&gt;" class="shp9" d="M1271.57 211.24C1294.7 180.77 1296.57 152.83 1277.2 127.42C1248.13 89.31 1212.14 111.78 1205.65 135.61C1199.16 159.44 1176.78 230.23 1220.2 234.11C1249.14 236.7 1266.26 229.08 1271.57 211.24Z" />
						<g id="&lt;Group&gt;">
							<g id="&lt;Group&gt;">
								<path id="&lt;Path&gt;" class="shp11" d="M1193.84 83.79L1197.69 93.32C1200.26 84.93 1204.72 79.45 1211.07 76.88C1208.49 86.23 1212.26 90.9 1222.37 90.87C1237.53 90.83 1272.04 73.98 1285.88 106.98C1300.5 141.85 1269.11 115.3 1270.63 118.65C1275.68 117.93 1285.58 101.51 1299.12 113.1C1314.14 125.96 1315.71 180.5 1270.07 217.03L1276.07 197.18C1279.37 199.33 1282.87 197.85 1286.56 192.73C1296.14 179.43 1290.14 171.89 1283.88 174.07C1279.71 175.53 1276.99 180.88 1275.72 190.13L1270.9 189.68L1276.15 160.1C1269.53 154.68 1268.68 145.54 1273.6 132.67C1240.92 140.08 1216.22 139.54 1199.52 131.04C1174.33 118.23 1172.44 102.48 1193.84 83.79Z" />
							</g>
							<path id="&lt;Path&gt;" class="shp9" d="M1272.88 207.05C1282.28 207.68 1288.38 201.64 1291.16 188.93C1295.33 169.86 1283.14 167.75 1278.71 179.38C1275.75 187.13 1273.81 196.36 1272.88 207.05Z" />
						</g>
					</g>
					<g id="&lt;Group&gt;">
						<path id="&lt;Path&gt;" class="shp12" d="M1208.8 199.6L1248.55 206.05C1229.08 218.8 1215.83 216.65 1208.8 199.6Z" />
						<g id="&lt;Group&gt;">
							<path id="&lt;Path&gt;" class="shp13" d="M1230 164.17C1229.72 166.55 1229.16 168.84 1228.49 171.09C1227.81 173.35 1226.97 175.54 1226.03 177.71C1225.51 178.77 1225.01 179.84 1224.45 180.89C1223.92 181.95 1223.24 182.95 1222.61 183.97C1221.94 184.99 1221.21 185.96 1220.36 186.89C1219.98 187.37 1219.45 187.81 1218.98 188.24C1218.53 188.68 1217.83 189.03 1217.27 189.4L1217.2 187.08C1218.38 187.79 1219.52 188.59 1220.66 189.39C1221.8 190.2 1222.92 191.03 1223.99 191.97C1222.6 191.67 1221.26 191.26 1219.93 190.84C1218.61 190.4 1217.29 189.96 1216.01 189.44L1214.42 188.8L1215.94 187.11C1216.27 186.75 1216.62 186.54 1216.93 186.1C1217.25 185.67 1217.61 185.35 1217.9 184.88C1218.2 184.42 1218.52 184.01 1218.8 183.53C1219.07 183.04 1219.39 182.6 1219.68 182.13C1220.25 181.16 1220.78 180.18 1221.34 179.19C1221.91 178.22 1222.43 177.2 1222.97 176.2C1224.07 174.2 1225.16 172.17 1226.31 170.16C1226.9 169.16 1227.46 168.14 1228.08 167.15C1228.67 166.14 1229.33 165.16 1230 164.17Z" />
						</g>
						<g id="&lt;Group&gt;">
							<path id="&lt;Path&gt;" class="shp13" d="M1278.72 200.06C1279.24 199.22 1279.56 198.19 1279.24 197.37C1279.08 196.97 1278.8 196.64 1278.43 196.4C1278.08 196.13 1277.67 195.94 1277.24 195.78L1276.84 195.62L1276.94 195.14C1277.47 192.7 1278.17 190.32 1279 187.96C1279.87 185.62 1280.82 183.29 1282.26 181.12C1282.62 180.58 1283.03 180.05 1283.51 179.56C1284 179.08 1284.58 178.59 1285.4 178.34C1285.85 178.25 1286.23 178.2 1286.78 178.37C1287.09 178.51 1287.31 178.51 1287.72 178.83C1288.53 179.36 1288.78 180.11 1288.96 180.81C1289.1 181.51 1289.07 182.19 1288.98 182.84C1288.9 183.49 1288.73 184.1 1288.54 184.71C1288.14 185.91 1287.65 187.06 1287.01 188.13C1287.34 186.94 1287.66 185.74 1287.82 184.54C1287.97 183.35 1288.06 182.12 1287.75 181.11C1287.6 180.65 1287.31 180.18 1287.02 180.07C1286.98 179.95 1286.54 179.88 1286.28 179.79C1286.24 179.78 1285.99 179.78 1285.84 179.84C1285.08 180.11 1284.32 181.13 1283.7 182.07C1282.46 184.06 1281.49 186.31 1280.57 188.56C1279.65 190.81 1278.8 193.13 1277.97 195.43L1277.67 194.8C1278.14 195.06 1278.61 195.34 1279.01 195.74C1279.41 196.13 1279.72 196.66 1279.83 197.21C1280.03 198.37 1279.43 199.38 1278.72 200.06Z" />
						</g>
						<path id="&lt;Path&gt;" class="shp8" d="M1251.41 173.33C1250.66 177.2 1248.88 180.11 1247.43 179.83C1245.98 179.55 1245.41 176.18 1246.15 172.31C1246.9 168.44 1248.68 165.53 1250.13 165.81C1251.58 166.09 1252.16 169.45 1251.41 173.33Z" />
						<path id="&lt;Path&gt;" class="shp8" d="M1218.9 168.21C1218.15 172.08 1216.37 174.99 1214.92 174.71C1213.47 174.43 1212.89 171.07 1213.64 167.19C1214.39 163.32 1216.17 160.41 1217.62 160.69C1219.07 160.97 1219.64 164.34 1218.9 168.21Z" />
						<g id="&lt;Group&gt;">
							<path id="&lt;Path&gt;" class="shp11" d="M1238.62 159.94C1238.85 158.57 1239.61 157.07 1240.88 155.44C1241.37 154.84 1241.94 154.21 1242.65 153.64C1243.32 153.01 1244.2 152.53 1245.11 152.03C1246.07 151.62 1247.1 151.21 1248.25 151.1C1249.37 150.82 1250.55 151.05 1251.71 151.11C1252.78 151.47 1253.98 151.65 1254.88 152.25C1255.82 152.78 1256.79 153.28 1257.47 153.99C1258.18 154.67 1258.94 155.27 1259.44 155.99C1259.96 156.7 1260.42 157.38 1260.83 158.01C1261.27 158.62 1261.49 159.29 1261.74 159.84C1261.99 160.39 1262.16 160.9 1262.3 161.31C1262.5 161.85 1262.63 162.29 1262.7 162.61C1262.39 162.44 1262.01 162.2 1261.53 161.88C1261.18 161.64 1260.75 161.35 1260.3 161C1259.83 160.66 1259.36 160.24 1258.76 159.89C1258.18 159.52 1257.58 159.11 1256.98 158.67C1256.38 158.2 1255.66 157.92 1255.01 157.5C1254.37 157.03 1253.62 156.86 1252.94 156.51C1252.61 156.31 1252.24 156.24 1251.89 156.16L1250.84 155.86C1250.14 155.86 1249.44 155.63 1248.73 155.75C1248.03 155.73 1247.33 155.9 1246.62 156.02C1245.94 156.25 1245.22 156.39 1244.57 156.71C1243.9 156.96 1243.28 157.27 1242.68 157.57C1241.5 158.17 1240.48 158.77 1239.77 159.22C1239.28 159.53 1238.9 159.77 1238.62 159.94Z" />
						</g>
						<g id="&lt;Group&gt;">
							<path id="&lt;Path&gt;" class="shp11" d="M1206.86 156.71C1206.99 155.37 1207.61 153.87 1208.73 152.2C1209.17 151.59 1209.66 150.93 1210.32 150.33C1210.93 149.68 1211.76 149.15 1212.61 148.61C1213.53 148.16 1214.51 147.69 1215.64 147.53C1216.74 147.21 1217.91 147.39 1219.05 147.43L1220.68 147.87L1221.48 148.11L1222.18 148.49C1223.11 148.99 1224.05 149.49 1224.72 150.17C1225.41 150.83 1226.17 151.4 1226.64 152.11C1227.14 152.79 1227.6 153.45 1227.99 154.06C1228.42 154.64 1228.63 155.3 1228.87 155.83C1229.11 156.37 1229.28 156.86 1229.42 157.25C1229.61 157.78 1229.74 158.21 1229.81 158.52C1229.51 158.36 1229.12 158.13 1228.66 157.83C1228.31 157.6 1227.88 157.34 1227.44 157C1226.98 156.69 1226.52 156.28 1225.93 155.95C1225.37 155.6 1224.79 155.22 1224.19 154.8C1223.62 154.34 1222.91 154.1 1222.29 153.7C1221.66 153.25 1220.95 153.09 1220.3 152.78L1219.8 152.56C1219.63 152.53 1219.47 152.5 1219.3 152.46L1218.3 152.2C1217.65 152.21 1216.99 152.02 1216.33 152.16C1215.67 152.16 1215.03 152.37 1214.36 152.51C1213.72 152.77 1213.04 152.93 1212.44 153.27C1211.8 153.54 1211.22 153.89 1210.66 154.2C1209.56 154.86 1208.6 155.49 1207.94 155.96C1207.48 156.28 1207.12 156.53 1206.86 156.71Z" />
						</g>
					</g>
				</g>
				<g id="&lt;Group&gt;">
					<g id="&lt;Group&gt;">
						<path id="&lt;Path&gt;" class="shp14" d="M1204.74 297.01C1208.02 288.04 1208.44 275.12 1206 258.26L1143.14 262.3L1092.97 346.5L1041.07 290.56C1023.46 297.03 1014.23 304.72 1013.38 313.63C1057.6 385.52 1086.43 421.47 1099.89 421.47C1113.26 421.47 1201.25 306.51 1204.74 297.01Z" />
						<g id="&lt;Group&gt;">
							<path id="&lt;Path&gt;" class="shp9" d="M1048.56 311.9C1037.8 296.13 1030.3 288.06 1026.07 287.67C1021.84 287.29 1006.46 287.87 979.94 289.4C959.56 275.56 957.83 277.1 974.75 294.02L988.59 296.32L971.86 296.32C965.33 290.94 960.71 288.64 958.02 289.4C955.33 290.17 959.94 294.59 971.86 302.67C959.56 298.05 953.6 296.71 953.98 298.63C954.56 301.51 969.55 309.01 975.9 310.74C980.13 311.9 992.24 310.93 1012.23 307.86L1033.57 329.2L1048.56 311.9Z" />
							<g id="&lt;Group&gt;">
								<path id="&lt;Path&gt;" class="shp12" d="M1204.74 297.01C1208.02 288.04 1208.44 275.12 1206 258.26L1143.14 262.3L1092.97 346.5L1041.07 290.56C1023.46 297.03 1014.23 304.72 1013.38 313.63C1057.6 385.52 1086.43 421.47 1099.89 421.47C1113.26 421.47 1201.25 306.51 1204.74 297.01Z" />
								<path id="&lt;Path&gt;" class="shp15" d="M1206 258.26L1143.14 262.3L1112.63 313.51C1116.7 326.74 1122.31 339.54 1129.13 350.37C1134.39 358.72 1140.54 366.4 1147.07 373.78C1174.16 340.96 1202.78 302.35 1204.74 297.01C1208.02 288.04 1208.44 275.12 1206 258.26Z" />
							</g>
						</g>
					</g>
					<g id="&lt;Group&gt;">
						<g id="&lt;Group&gt;">
							<g id="&lt;Group&gt;">
								<path id="&lt;Path&gt;" class="shp12" d="M1284.3 251.31C1271.96 264.17 1255.28 270.33 1234.26 269.8C1216.43 269.34 1205.86 263 1202.54 250.77C1167.33 248.62 1147.53 252.47 1143.14 262.3C1138.75 272.13 1138.36 294.24 1141.99 328.62C1147.23 419.34 1150.11 476.82 1150.64 501.05C1166.65 518.21 1184.34 527.44 1203.69 528.73C1207.26 528.97 1207.48 499.13 1211.22 499.33C1213.49 499.45 1219.83 529.21 1222.15 529.31C1249.96 530.47 1292.32 514.44 1297.12 502.78C1302.9 385.7 1310.8 306.6 1320.81 265.5L1284.3 251.31Z" />
							</g>
						</g>
						<g id="&lt;Group&gt;">
							<path id="&lt;Path&gt;" class="shp16" d="M1218.11 278.16L1225.32 289.98L1198.5 443.38L1214.94 467.03L1237.43 448.86L1239.74 291.13L1256.17 273.83L1243.49 264.03L1225.9 261.72L1218.11 278.16Z" />
							<g id="&lt;Group&gt;">
								<path id="&lt;Path&gt;" class="shp15" d="M1197.93 248.46C1196 259.8 1202.25 273.55 1216.67 289.69L1231.29 262.43L1207.73 240.96L1197.93 248.46Z" />
								<path id="&lt;Path&gt;" class="shp15" d="M1274.05 234.04L1236.13 262.75L1250.41 290.56C1267.15 278.21 1278.45 265.12 1284.3 251.31L1274.05 234.04Z" />
							</g>
						</g>
					</g>
					<g id="&lt;Group&gt;">
						<g id="&lt;Group&gt;">
							<path id="&lt;Path&gt;" class="shp9" d="M1346.3 288.35C1385.48 350.57 1403.17 386.99 1399.37 397.62C1393.67 413.56 1316.86 484.76 1305.41 484.11C1297.78 483.67 1293.92 478.67 1293.83 469.09C1261.96 490.87 1261.43 488.93 1292.25 463.26C1250.84 484.49 1250.07 481.26 1289.94 453.56C1251.27 460.27 1252.04 458.08 1292.23 446.99C1262.45 443.37 1264.43 442.2 1298.17 443.5L1304.98 458.25L1354.48 396.01L1292.98 316.88L1346.3 288.35Z" />
						</g>
						<path id="&lt;Path&gt;" class="shp12" d="M1392.58 362.06C1374.86 330.96 1343.57 277.06 1335.83 270.53C1328.53 264.37 1311.35 257.96 1284.3 251.31L1283.85 318.82L1349.02 393.79L1305.19 452.61C1310.96 466.45 1317.88 475.29 1325.95 479.14C1381.32 427.23 1409 398.21 1409 392.06C1409 386.22 1399.53 371.84 1392.58 362.06Z" />
					</g>
				</g>
			</g>
			<g id="&lt;Group&gt;">
				<g id="&lt;Group&gt;">
					<path id="&lt;Path&gt;" class="shp16" d="M1124 232.71C1124 237.05 1120.48 240.57 1116.14 240.57L873.82 240.57C869.47 240.57 865.95 237.05 865.95 232.71L865.95 106.63C865.95 102.29 869.47 98.76 873.82 98.76L1116.14 98.76C1120.48 98.76 1124 102.29 1124 106.63L1124 232.71Z" />
					<path id="&lt;Path&gt;" class="shp16" d="M981.43 224.83L996.88 274.05L1009.76 218.67L981.43 224.83Z" />
				</g>
				<path id="SAP UI5" fill="#ffffff" aria-label="SAP"  d="M961.07 142.75L953.28 157.68Q953.28 157.68 951.7 156.75Q950.13 155.82 947.53 154.71Q944.93 153.5 941.87 152.58Q938.81 151.65 935.85 151.65Q933.53 151.65 932.04 152.39Q930.56 153.13 930.56 154.9Q930.56 156.56 932.04 157.58Q933.53 158.6 936.22 159.44Q939 160.27 942.8 161.48Q948.92 163.33 953.37 165.74Q957.82 168.16 960.23 171.96Q962.64 175.67 962.64 181.88Q962.64 187.81 960.51 191.89Q958.38 195.88 954.76 198.29Q951.15 200.7 946.69 201.81Q942.24 202.83 937.61 202.83Q932.88 202.83 927.69 201.91Q922.59 200.89 917.76 199.22Q912.94 197.46 908.96 195.14L916.74 179.28Q916.74 179.28 918.6 180.39Q920.45 181.51 923.51 182.9Q926.57 184.29 930.28 185.4Q934.08 186.51 937.89 186.51Q940.85 186.51 941.97 185.77Q943.17 184.94 943.17 183.64Q943.17 181.69 941.13 180.67Q939.09 179.56 935.75 178.63Q932.51 177.61 928.52 176.31Q922.77 174.37 919.06 171.96Q915.35 169.45 913.59 166.12Q911.83 162.68 911.83 157.86Q911.83 150.54 915.26 145.62Q918.69 140.71 924.26 138.2Q929.91 135.61 936.4 135.61Q941.22 135.61 945.67 136.81Q950.22 137.93 954.11 139.6Q958.1 141.26 961.07 142.75ZM963.11 202L984.16 136.16L1004.37 136.16L1025.33 202L1006.97 202L1002.98 189.11L985.45 189.11L981.56 202L963.11 202ZM988.14 177.06L1000.1 177.06L994.26 153.88L988.14 177.06ZM1048.88 202L1030.8 202L1030.8 136.16L1059.17 136.16Q1063.99 136.16 1068.07 138.11Q1072.15 140.06 1075.12 143.4Q1078.09 146.64 1079.66 150.72Q1081.33 154.8 1081.33 158.98Q1081.33 164.82 1078.55 170.01Q1075.86 175.2 1070.95 178.54Q1066.13 181.79 1059.63 181.79L1048.88 181.79L1048.88 202ZM1048.88 151.93L1048.88 166.02L1058.43 166.02Q1059.54 166.02 1060.56 165.37Q1061.58 164.72 1062.23 163.15Q1062.97 161.57 1062.97 158.98Q1062.97 156.19 1062.14 154.71Q1061.4 153.13 1060.19 152.58Q1059.08 151.93 1057.97 151.93L1048.88 151.93Z" />
			</g>
		</g>
		<g id="&lt;Group&gt;">
			<g id="&lt;Group&gt;">
				<g id="&lt;Group&gt;">
					<g id="&lt;Group&gt;">
						<g id="&lt;Group&gt;">
							<path id="&lt;Path&gt;" class="shp16" d="M894.7 428.77C894.7 432.67 891.54 435.82 887.65 435.82L817.11 435.82C813.21 435.82 810.05 432.67 810.05 428.77L810.05 358.23C810.05 354.33 813.21 351.18 817.11 351.18L887.65 351.18C891.54 351.18 894.7 354.33 894.7 358.23L894.7 428.77Z" />
						</g>
					</g>
				</g>
				<g id="&lt;Group&gt;">
					<path id="&lt;Path&gt;" class="shp17" d="M879.85 420.27L824.62 420.27L824.62 383.19L879.85 383.19L879.85 420.27Z" />
					<g id="&lt;Group&gt;">
						<path id="&lt;Path&gt;" class="shp17" d="M853.02 405.28L853.02 362.67" />
						<path id="&lt;Path&gt;" class="shp17" d="M840.4 372.14L852.23 360.31L864.46 372.53" />
					</g>
				</g>
			</g>
			<g id="&lt;Group&gt;">
				<path id="&lt;Path&gt;" class="shp2" d="M1010.5 593.22C1010.5 596.82 1008.44 599.73 1005.89 599.73L863.75 599.73C861.2 599.73 859.13 596.82 859.13 593.22L859.13 459.16C859.13 455.56 861.2 452.65 863.75 452.65L1005.89 452.65C1008.44 452.65 1010.5 455.56 1010.5 459.16L1010.5 593.22Z" />
				<g id="&lt;Group&gt;">
					<path id="&lt;Path&gt;" class="shp18" d="M990.66 563.19L883.96 563.19L916.87 483.41L941.8 531.28L956.75 517.32L990.66 563.19Z" />
					<path id="&lt;Path&gt;" class="shp18" d="M945.85 490.08C945.85 497.51 951.87 503.54 959.31 503.54C966.74 503.54 972.77 497.51 972.77 490.08C972.77 482.64 966.74 476.62 959.31 476.62C951.87 476.62 945.85 482.64 945.85 490.08Z" />
				</g>
			</g>
			<g id="&lt;Group&gt;">
				<path id="&lt;Path&gt;" class="shp2" d="M566.59 157.18C566.59 199.32 600.75 233.48 642.89 233.48C685.04 233.48 719.2 199.32 719.2 157.18C719.2 115.04 685.04 80.87 642.89 80.87C600.75 80.87 566.59 115.04 566.59 157.18Z" />
				<g id="&lt;Group&gt;">
					<path id="&lt;Path&gt;" class="shp19" d="M588.8 157.18C588.8 187.05 613.02 211.27 642.89 211.27C672.77 211.27 696.98 187.05 696.98 157.18C696.98 127.31 672.77 103.09 642.89 103.09C613.02 103.09 588.8 127.31 588.8 157.18Z" />
					<path id="&lt;Path&gt;" class="shp19" d="M603.64 118.15C613.49 128.54 627.44 135.03 642.89 135.03C657.31 135.03 670.41 129.39 680.1 120.2" />
					<path id="&lt;Path&gt;" class="shp19" d="M680.1 196.85C670.25 186.45 656.3 179.96 640.84 179.96C626.43 179.96 613.33 185.6 603.64 194.8" />
					<path id="&lt;Path&gt;" class="shp19" d="M611.6 157.18C611.6 187.05 625.61 211.27 642.89 211.27C660.18 211.27 674.19 187.05 674.19 157.18C674.19 127.31 660.18 103.09 642.89 103.09C625.61 103.09 611.6 127.31 611.6 157.18Z" />
					<path id="&lt;Path&gt;" class="shp19" d="M642.89 103.09L642.89 211.27" />
					<path id="&lt;Path&gt;" class="shp19" d="M588.8 157.18L696.98 157.18" />
				</g>
			</g>
			<g id="&lt;Group&gt;">
				<path id="&lt;Path&gt;" class="shp16" d="M535.74 356.5C535.74 360.3 532.66 363.39 528.85 363.39L384.22 363.39C380.42 363.39 377.33 360.3 377.33 356.5L377.33 211.87C377.33 208.06 380.42 204.98 384.22 204.98L528.85 204.98C532.66 204.98 535.74 208.06 535.74 211.87L535.74 356.5Z" />
				<g id="&lt;Group&gt;">
					<path id="&lt;Compound Path&gt;" class="shp12" d="M397.91 278.43L429.17 259.41L429.17 274.3L418.26 281.31L429.17 287.72L429.17 303.35L397.91 284.92L397.91 278.43Z" />
					<path id="&lt;Compound Path&gt;" class="shp12" d="M477.12 248.06L445.78 320.31L430.38 320.31L461.64 248.06L477.12 248.06Z" />
					<path id="&lt;Compound Path&gt;" class="shp12" d="M515.16 284.92L483.9 303.35L483.9 287.72L494.81 281.31L483.9 274.3L483.9 259.41L515.16 278.43L515.16 284.92Z" />
				</g>
			</g>
			<g id="&lt;Group&gt;">
				<path id="&lt;Path&gt;" class="shp16" d="M757.41 660.9C757.41 701.71 790.49 734.79 831.3 734.79C872.11 734.79 905.19 701.71 905.19 660.9C905.19 620.09 872.11 587.01 831.3 587.01C790.49 587.01 757.41 620.09 757.41 660.9Z" />
				<g id="&lt;Group&gt;">
					<path id="&lt;Path&gt;" class="shp20" d="M880.93 660.9C880.93 688.64 858.44 711.13 830.7 711.13C802.96 711.13 780.48 688.64 780.48 660.9C780.48 633.16 802.96 610.67 830.7 610.67C858.44 610.67 880.93 633.16 880.93 660.9Z" />
					<path id="&lt;Path&gt;" class="shp20" d="M857.75 660.9C857.75 675.84 845.64 687.94 830.7 687.94C815.77 687.94 803.66 675.84 803.66 660.9C803.66 645.96 815.77 633.85 830.7 633.85C845.64 633.85 857.75 645.96 857.75 660.9Z" />
					<g id="&lt;Group&gt;">
						<path id="&lt;Path&gt;" class="shp20" d="M830.7 597.3L830.7 644.31" />
						<path id="&lt;Path&gt;" class="shp20" d="M830.7 678.44L830.7 725.45" />
					</g>
					<g id="&lt;Group&gt;">
						<path id="&lt;Path&gt;" class="shp20" d="M766.63 661.38L813.64 661.38" />
						<path id="&lt;Path&gt;" class="shp20" d="M847.77 661.38L894.77 661.38" />
					</g>
				</g>
			</g>
			<g id="&lt;Group&gt;">
				<path id="&lt;Path&gt;" class="shp16" d="M597.89 758.93C597.89 764.27 593.56 768.59 588.23 768.59L198.01 768.59C192.67 768.59 188.35 764.27 188.35 758.93L188.35 502C188.35 496.67 192.67 492.34 198.01 492.34L588.23 492.34C593.56 492.34 597.89 496.67 597.89 502L597.89 758.93Z" />
				<g id="&lt;Group&gt;">
					<g id="&lt;Group&gt;">
						<path id="&lt;Path&gt;" class="shp12" d="M256.72 603.11C256.72 615.81 246.42 626.11 233.72 626.11C221.02 626.11 210.72 615.81 210.72 603.11C210.72 590.41 221.02 580.11 233.72 580.11C246.42 580.11 256.72 590.41 256.72 603.11Z" />
						<path id="&lt;Path&gt;" class="shp21" d="M272.72 594.11L560.72 594.11" />
						<path id="&lt;Path&gt;" class="shp21" d="M272.72 610.11L439.72 610.11" />
					</g>
					<g id="&lt;Group&gt;">
						<path id="&lt;Path&gt;" class="shp12" d="M256.72 666.61C256.72 679.31 246.42 689.61 233.72 689.61C221.02 689.61 210.72 679.31 210.72 666.61C210.72 653.91 221.02 643.61 233.72 643.61C246.42 643.61 256.72 653.91 256.72 666.61Z" />
						<path id="&lt;Path&gt;" class="shp21" d="M272.72 657.61L560.72 657.61" />
						<path id="&lt;Path&gt;" class="shp21" d="M272.72 673.61L541.72 673.61" />
					</g>
					<g id="&lt;Group&gt;">
						<path id="&lt;Path&gt;" class="shp12" d="M256.72 730.11C256.72 742.81 246.42 753.11 233.72 753.11C221.02 753.11 210.72 742.81 210.72 730.11C210.72 717.41 221.02 707.11 233.72 707.11C246.42 707.11 256.72 717.41 256.72 730.11Z" />
						<path id="&lt;Path&gt;" class="shp21" d="M272.72 721.11L560.72 721.11" />
						<path id="&lt;Path&gt;" class="shp21" d="M272.72 737.11L359.72 737.11" />
					</g>
					<path id="&lt;Path&gt;" class="shp12" d="M457.72 546.11C457.72 551.63 453.24 556.11 447.72 556.11L216.72 556.11C211.2 556.11 206.72 551.63 206.72 546.11L206.72 522.11C206.72 516.59 211.2 512.11 216.72 512.11L447.72 512.11C453.24 512.11 457.72 516.59 457.72 522.11L457.72 546.11Z" />
				</g>
			</g>
			<g id="&lt;Group&gt;">
				<path id="&lt;Path&gt;" class="shp2" d="M558.4 716.73C558.4 761.8 594.94 798.35 640.02 798.35C685.09 798.35 721.63 761.8 721.63 716.73C721.63 671.65 685.09 635.11 640.02 635.11C594.94 635.11 558.4 671.65 558.4 716.73Z" />
				<path id="&lt;Compound Path&gt;" fill-rule="evenodd" class="shp12" d="M697.32 718.24L697.32 718.35C697.32 725.16 696.16 731.75 693.88 738.03L681.78 733.63C679.99 738.54 677.35 743.04 674.05 746.97L683.92 755.26C679.62 760.39 674.5 764.69 668.71 768.05L662.24 756.89C657.84 759.45 652.96 761.27 647.77 762.18L650 774.87C646.73 775.45 643.38 775.74 640.03 775.74C640.03 775.74 640.02 775.74 640.01 775.74C636.7 775.74 633.38 775.45 630.13 774.89L632.34 762.2C627.15 761.29 622.27 759.48 617.86 756.93L611.41 768.1C605.62 764.76 600.49 760.46 596.17 755.34L606.03 747.03C602.73 743.11 600.08 738.61 598.28 733.71L586.19 738.13C583.89 731.86 582.72 725.27 582.71 718.55L595.58 718.52C595.58 718.49 595.57 718.46 595.57 718.43C595.57 713.13 596.51 708.04 598.22 703.33L586.11 698.95C588.38 692.65 591.72 686.85 596.03 681.7L605.92 689.96C609.23 686.01 613.22 682.64 617.71 680.02L611.22 668.88C617.03 665.5 623.31 663.19 629.91 662.02L632.17 674.7C634.72 674.24 637.34 673.99 640.01 673.99C642.6 673.99 645.13 674.23 647.6 674.65L649.78 661.96C656.39 663.09 662.69 665.36 668.51 668.71L662.1 679.89C666.6 682.48 670.6 685.83 673.94 689.77L683.78 681.44C688.12 686.57 691.49 692.35 693.8 698.62L681.72 703.07C683.47 707.81 684.43 712.91 684.45 718.24L697.32 718.24ZM612.23 718.46C612.23 733.79 624.69 746.25 640.01 746.25C655.34 746.25 667.8 733.79 667.8 718.46C667.8 703.14 655.34 690.68 640.01 690.68C624.69 690.68 612.23 703.14 612.23 718.46Z" />
			</g>
			<g id="&lt;Group&gt;">
				<g id="&lt;Group&gt;">
					<path id="&lt;Path&gt;" class="shp2" d="M745.16 572.51C745.16 577.85 740.83 582.17 735.5 582.17L492.09 582.17C486.76 582.17 482.44 577.85 482.44 572.51L482.44 388.03C482.44 382.69 486.76 378.37 492.09 378.37L735.5 378.37C740.83 378.37 745.16 382.69 745.16 388.03L745.16 572.51Z" />
					<path id="&lt;Path&gt;" class="shp2" d="M669.34 566.72L717.63 615.01L717.63 567.59L669.34 566.72Z" />
				</g>
				<g id="&lt;Group&gt;">
					<path id="&lt;Path&gt;" class="shp12" d="M571.3 469.16L503.68 469.16L503.68 401.55L571.3 401.55L571.3 469.16Z" />
					<g id="&lt;Group&gt;">
						<path id="&lt;Path&gt;" class="shp12" d="M722.94 408.79C722.94 411.73 720.56 414.11 717.63 414.11L590.13 414.11C587.2 414.11 584.82 411.73 584.82 408.79C584.82 405.86 587.2 403.48 590.13 403.48L717.63 403.48C720.56 403.48 722.94 405.86 722.94 408.79Z" />
						<path id="&lt;Path&gt;" class="shp12" d="M722.94 436.32C722.94 439.26 720.56 441.63 717.63 441.63L590.13 441.63C587.2 441.63 584.82 439.26 584.82 436.32C584.82 433.39 587.2 431.01 590.13 431.01L717.63 431.01C720.56 431.01 722.94 433.39 722.94 436.32Z" />
						<path id="&lt;Path&gt;" class="shp12" d="M722.94 463.85C722.94 466.78 720.56 469.16 717.63 469.16L590.13 469.16C587.2 469.16 584.82 466.78 584.82 463.85C584.82 460.92 587.2 458.54 590.13 458.54L717.63 458.54C720.56 458.54 722.94 460.92 722.94 463.85Z" />
						<g id="&lt;Group&gt;">
							<path id="&lt;Path&gt;" class="shp12" d="M722.94 491.86C722.94 494.8 720.56 497.17 717.63 497.17L507.55 497.17C504.61 497.17 502.24 494.8 502.24 491.86C502.24 488.93 504.61 486.55 507.55 486.55L717.63 486.55C720.56 486.55 722.94 488.93 722.94 491.86Z" />
							<path id="&lt;Path&gt;" class="shp12" d="M722.94 519.39C722.94 522.32 720.56 524.7 717.63 524.7L507.55 524.7C504.61 524.7 502.24 522.32 502.24 519.39C502.24 516.46 504.61 514.08 507.55 514.08L717.63 514.08C720.56 514.08 722.94 516.46 722.94 519.39Z" />
							<path id="&lt;Path&gt;" class="shp12" d="M722.94 546.92C722.94 549.85 720.56 552.23 717.63 552.23L507.55 552.23C504.61 552.23 502.24 549.85 502.24 546.92C502.24 543.98 504.61 541.6 507.55 541.6L717.63 541.6C720.56 541.6 722.94 543.98 722.94 546.92Z" />
						</g>
					</g>
				</g>
			</g>
			<g id="&lt;Group&gt;">
				<path id="&lt;Path&gt;" class="shp2" d="M104.61 472.16C104.61 514.31 138.77 548.47 180.92 548.47C223.06 548.47 257.22 514.31 257.22 472.16C257.22 430.02 223.06 395.86 180.92 395.86C138.77 395.86 104.61 430.02 104.61 472.16Z" />
				<path id="&lt;Path&gt;" class="shp12" d="M153.93 430.81L225.93 472.38L153.93 513.95L153.93 430.81Z" />
			</g>
		</g>
	</g>
</svg>