<svg version="1.2" baseProfile="tiny-ps" xmlns="http://www.w3.org/2000/svg" viewBox="0 0 400 400" width="400" height="400">
	<title>Nuevo proyecto</title>
	<style>
		tspan { white-space:pre }
		.shp0 { fill: #1a2445 } 
		.shp1 { fill: #61151a } 
		.shp2 { fill: #ff3946 } 
		.shp3 { fill: #314584 } 
	</style>
	<g id="Logo">
		<path id="&lt;Path&gt;" class="shp0" d="M183.17 290.16C205.61 310.04 205.61 346.87 183.17 366.76L160.53 386.82L33.82 274.52C11.38 254.63 11.38 217.81 33.82 197.92L56.45 177.86L183.17 290.16Z" />
		<path id="&lt;Path&gt;" class="shp1" d="M216.83 109.66C194.39 89.77 194.39 52.95 216.83 33.06L239.47 13L366.18 125.3C388.62 145.19 388.62 182.01 366.18 201.9L343.55 221.96L216.83 109.66Z" />
		<path id="&lt;Path&gt;" class="shp2" d="M216.83 218.82C194.39 238.71 194.39 275.53 216.83 295.42L239.47 315.48L366.18 203.18C388.62 183.29 388.62 146.47 366.18 126.58L343.55 106.52L216.83 218.82Z" />
		<path id="&lt;Path&gt;" class="shp3" d="M183.17 181C205.61 161.11 205.61 124.28 183.17 104.4L160.53 84.34L33.82 196.64C11.38 216.52 11.38 253.35 33.82 273.24L56.45 293.3L183.17 181Z" />
	</g>
</svg>