<svg version="1.2" baseProfile="tiny-ps" xmlns="http://www.w3.org/2000/svg" viewBox="0 0 64 64" width="65" height="48">
	<title>programmer-svg</title>
	<style>
		tspan { white-space:pre }
		.shp0 { fill: #314584 } 
		.shp1 { fill: #d05469 } 
	</style>
	<g id="Programmer-2">
		<path id="Layer" fill-rule="evenodd" class="shp0" d="M44 36C45.71 36 47.4 36.34 48.97 36.99C50.55 37.65 51.98 38.61 53.19 39.81C54.39 41.02 55.35 42.45 56.01 44.03C56.66 45.6 57 47.29 57 49L57 61C57 61.13 56.97 61.26 56.92 61.38C56.87 61.5 56.8 61.61 56.71 61.71C56.61 61.8 56.5 61.87 56.38 61.92C56.26 61.97 56.13 62 56 62L8 62C7.87 62 7.74 61.97 7.62 61.92C7.5 61.87 7.39 61.8 7.29 61.71C7.2 61.61 7.13 61.5 7.08 61.38C7.03 61.26 7 61.13 7 61L7 49C7 47.29 7.34 45.6 7.99 44.03C8.65 42.45 9.61 41.02 10.81 39.81C12.02 38.61 13.45 37.65 15.03 36.99C16.6 36.34 18.29 36 20 36L26 36L26 34L13 34C12.61 34 12.22 33.92 11.85 33.77C11.49 33.62 11.16 33.4 10.88 33.12C10.6 32.84 10.38 32.51 10.23 32.15C10.08 31.78 10 31.39 10 31L10 5C10 4.61 10.08 4.22 10.23 3.85C10.38 3.49 10.6 3.16 10.88 2.88C11.16 2.6 11.49 2.38 11.85 2.23C12.22 2.08 12.61 2 13 2L51 2C51.39 2 51.78 2.08 52.15 2.23C52.51 2.38 52.84 2.6 53.12 2.88C53.4 3.16 53.62 3.49 53.77 3.85C53.92 4.22 54 4.61 54 5L54 31C54 31.39 53.92 31.78 53.77 32.15C53.62 32.51 53.4 32.84 53.12 33.12C52.84 33.4 52.51 33.62 52.15 33.77C51.78 33.92 51.39 34 51 34L38 34L38 36L44 36ZM38.97 45.24C38.93 45.4 38.85 45.55 38.74 45.67C38.63 45.79 38.5 45.88 38.34 45.94C38.19 46 38.02 46.01 37.86 45.99C37.7 45.97 37.54 45.91 37.41 45.81L36.46 45.12L35.04 47.24L36.87 60L37.19 60L41.77 38L40.78 38L38.97 45.24ZM34.84 43.94L32 41.87L29.16 43.94L30.54 46L33.47 46L34.84 43.94ZM29.15 60L34.85 60L33.14 48L30.87 48L29.15 60ZM38.72 38L37.33 38L33.7 40.64L37.39 43.32L38.72 38ZM12.62 4.08C12.5 4.13 12.39 4.2 12.29 4.29C12.2 4.39 12.13 4.5 12.08 4.62C12.03 4.74 12 4.87 12 5L12 8L52 8L52 5C52 4.87 51.97 4.74 51.92 4.62C51.87 4.5 51.8 4.39 51.71 4.29C51.61 4.2 51.5 4.13 51.38 4.08C51.26 4.03 51.13 4 51 4L13 4C12.87 4 12.74 4.03 12.62 4.08ZM12.08 31.38C12.13 31.5 12.2 31.61 12.29 31.71C12.39 31.8 12.5 31.87 12.62 31.92C12.74 31.97 12.87 32 13 32L51 32C51.13 32 51.26 31.97 51.38 31.92C51.5 31.87 51.61 31.8 51.71 31.71C51.8 31.61 51.87 31.5 51.92 31.38C51.97 31.26 52 31.13 52 31L52 10L12 10L12 31C12 31.13 12.03 31.26 12.08 31.38ZM28 34L28 36.49L32 39.4L36 36.49L36 34L28 34ZM25.28 38L26.61 43.32L30.3 40.64L26.68 38L25.28 38ZM23.22 38L22.23 38L26.81 60L27.13 60L28.96 47.24L27.54 45.12L26.59 45.81C26.46 45.91 26.3 45.97 26.14 45.99C25.98 46.01 25.81 46 25.66 45.94C25.5 45.88 25.37 45.79 25.26 45.67C25.15 45.55 25.07 45.4 25.03 45.24L23.22 38ZM9 60L17 60L17 48C17 47.73 17.11 47.48 17.29 47.29C17.48 47.11 17.73 47 18 47C18.27 47 18.52 47.11 18.71 47.29C18.89 47.48 19 47.73 19 48L19 60L24.77 60L20.19 38L20 38C18.56 38 17.13 38.29 15.79 38.84C14.46 39.39 13.25 40.2 12.23 41.23C11.2 42.25 10.39 43.46 9.84 44.79C9.29 46.13 9 47.56 9 49L9 60ZM55 49C55 47.56 54.71 46.13 54.16 44.79C53.61 43.46 52.8 42.25 51.77 41.23C50.75 40.2 49.54 39.39 48.21 38.84C46.87 38.29 45.44 38 44 38L43.81 38L39.23 60L45 60L45 49C45 48.73 45.11 48.48 45.29 48.29C45.48 48.11 45.73 48 46 48C46.27 48 46.52 48.11 46.71 48.29C46.89 48.48 47 48.73 47 49L47 60L55 60L55 49Z" />
		<path id="Layer" class="shp1" d="M17 14C16.87 14 16.74 14.03 16.62 14.08C16.5 14.13 16.39 14.2 16.29 14.29C16.2 14.39 16.13 14.5 16.08 14.62C16.03 14.74 16 14.87 16 15L16 29C16 29.27 16.11 29.52 16.29 29.71C16.48 29.89 16.73 30 17 30C17.27 30 17.52 29.89 17.71 29.71C17.89 29.52 18 29.27 18 29L18 15C18 14.87 17.97 14.74 17.92 14.62C17.87 14.5 17.8 14.39 17.71 14.29C17.61 14.2 17.5 14.13 17.38 14.08C17.26 14.03 17.13 14 17 14Z" />
		<path id="Layer" class="shp1" d="M20.45 16.83L23.45 18.83C23.67 18.98 23.94 19.03 24.2 18.98C24.46 18.93 24.68 18.78 24.83 18.55C24.98 18.33 25.03 18.06 24.98 17.8C24.93 17.54 24.78 17.32 24.55 17.17L22.8 16L24.55 14.83C24.77 14.68 24.93 14.46 24.98 14.2C25.03 13.94 24.98 13.67 24.83 13.45C24.68 13.22 24.45 13.07 24.19 13.02C23.93 12.97 23.66 13.02 23.44 13.17L20.44 15.17C20.31 15.26 20.19 15.38 20.12 15.53C20.04 15.67 20 15.84 20 16C20 16.16 20.04 16.33 20.12 16.47C20.19 16.62 20.31 16.74 20.44 16.83L20.45 16.83Z" />
		<path id="Layer" class="shp1" d="M31.17 18.55C31.24 18.66 31.33 18.76 31.44 18.83C31.55 18.9 31.68 18.96 31.8 18.98C31.93 19.01 32.07 19.01 32.19 18.98C32.32 18.96 32.45 18.9 32.55 18.83L35.55 16.83C35.69 16.74 35.8 16.62 35.88 16.47C35.96 16.33 36 16.16 36 16C36 15.84 35.96 15.67 35.88 15.53C35.8 15.38 35.69 15.26 35.55 15.17L32.55 13.17C32.33 13.02 32.06 12.97 31.8 13.02C31.54 13.07 31.32 13.22 31.17 13.45C31.02 13.67 30.97 13.94 31.02 14.2C31.07 14.46 31.22 14.68 31.45 14.83L33.2 16L31.45 17.17C31.34 17.24 31.24 17.33 31.17 17.44C31.1 17.55 31.05 17.67 31.02 17.8C30.99 17.93 30.99 18.06 31.02 18.19C31.04 18.32 31.1 18.45 31.17 18.55L31.17 18.55Z" />
		<path id="Layer" class="shp1" d="M26.68 19.95C26.81 19.99 26.94 20.01 27.07 20C27.2 19.99 27.33 19.95 27.45 19.89C27.56 19.84 27.67 19.75 27.75 19.65C27.84 19.56 27.91 19.44 27.95 19.32L29.95 13.32C30.03 13.06 30.01 12.79 29.89 12.55C29.77 12.32 29.57 12.13 29.31 12.05C29.06 11.97 28.79 11.99 28.55 12.11C28.31 12.22 28.13 12.43 28.05 12.68L26.05 18.68C26.01 18.81 25.99 18.94 26 19.07C26.01 19.2 26.04 19.33 26.1 19.45C26.16 19.57 26.24 19.67 26.34 19.76C26.44 19.84 26.56 19.91 26.68 19.95L26.68 19.95Z" />
		<path id="Layer" class="shp1" d="M20 22L26 22L26 24L20 24L20 22Z" />
		<path id="Layer" class="shp1" d="M28 22L30 22L30 24L28 24L28 22Z" />
		<path id="Layer" class="shp1" d="M23 25L35 25L35 27L23 27L23 25Z" />
		<path id="Layer" class="shp1" d="M41 25L48 25L48 27L41 27L41 25Z" />
		<path id="Layer" class="shp1" d="M23 28L25 28L25 30L23 30L23 28Z" />
		<path id="Layer" class="shp1" d="M27 28L39 28L39 30L27 30L27 28Z" />
		<path id="Layer" class="shp1" d="M41 28L45 28L45 30L41 30L41 28Z" />
		<path id="Layer" class="shp1" d="M37 25L39 25L39 27L37 27L37 25Z" />
		<path id="Layer" class="shp0" d="M14 5L16 5L16 7L14 7L14 5Z" />
		<path id="Layer" class="shp0" d="M18 5L20 5L20 7L18 7L18 5Z" />
		<path id="Layer" class="shp0" d="M22 5L24 5L24 7L22 7L22 5Z" />
	</g>
</svg>