<svg version="1.2" baseProfile="tiny-ps" xmlns="http://www.w3.org/2000/svg" viewBox="0 0 512 512" width="48" height="48">
	<title>sitio-web-svg</title>
	<style>
		tspan { white-space:pre }
		.shp0 { fill: #314584 } 
		.shp1 { fill: #e43f5a } 
	</style>
	<g id="Layer">
		<g id="Layer">
			<path id="Layer" fill-rule="evenodd" class="shp0" d="M512 42.67L512 324.27C512 328.98 508.18 332.8 503.47 332.8L8.53 332.8C3.82 332.8 0 328.98 0 324.27L0 42.67C0 23.85 15.32 8.53 34.14 8.53L477.86 8.53C496.68 8.53 512 23.85 512 42.67ZM494.93 42.67C494.93 33.25 487.27 25.6 477.86 25.6L34.14 25.6C24.73 25.6 17.07 33.25 17.07 42.67L17.07 315.73L494.93 315.73L494.93 42.67Z" />
		</g>
	</g>
	<g id="Layer">
		<g id="Layer">
			<path id="Layer" fill-rule="evenodd" class="shp0" d="M512 323.27L512 365.92C512 384.75 496.68 400.07 477.86 400.07L34.14 400.07C15.32 400.07 0 384.75 0 365.92L0 323.27C0 318.56 3.82 314.73 8.53 314.73L503.47 314.73C508.18 314.73 512 318.56 512 323.27ZM494.93 365.93L494.93 331.8L17.07 331.8L17.07 365.93C17.07 375.35 24.73 383 34.14 383L477.86 383C487.27 383 494.93 375.35 494.93 365.93L494.93 365.93Z" />
		</g>
	</g>
	<g id="Layer">
		<g id="Layer">
			<path id="Layer" class="shp0" d="M281.6 349.87L230.4 349.87C225.69 349.87 221.87 353.69 221.87 358.4C221.87 363.11 225.69 366.93 230.4 366.93L281.6 366.93C286.31 366.93 290.13 363.11 290.13 358.4C290.13 353.69 286.31 349.87 281.6 349.87Z" />
		</g>
	</g>
	<g id="Layer">
		<g id="Layer">
			<path id="Layer" fill-rule="evenodd" class="shp0" d="M477.87 50.2L477.87 323.27C477.87 327.98 474.04 331.8 469.33 331.8L42.67 331.8C37.96 331.8 34.13 327.98 34.13 323.27L34.13 50.2C34.13 45.49 37.96 41.67 42.67 41.67L469.33 41.67C474.04 41.67 477.87 45.49 477.87 50.2ZM460.8 58.73L51.2 58.73L51.2 314.73L460.8 314.73L460.8 58.73Z" />
		</g>
	</g>
	<g id="Layer">
		<g id="Layer">
			<path id="Layer" fill-rule="evenodd" class="shp0" d="M392.53 477.87C392.53 491.98 381.05 503.47 366.93 503.47L145.07 503.47C130.95 503.47 119.47 491.98 119.47 477.87C119.47 463.75 130.95 452.27 145.07 452.27L366.93 452.27C381.05 452.27 392.53 463.75 392.53 477.87ZM375.47 477.87C375.47 473.16 371.64 469.33 366.93 469.33L145.07 469.33C140.36 469.33 136.53 473.16 136.53 477.87C136.53 482.57 140.36 486.4 145.07 486.4L366.93 486.4C371.64 486.4 375.47 482.57 375.47 477.87Z" />
		</g>
	</g>
	<g id="Layer">
		<g id="Layer">
			<path id="Layer" fill-rule="evenodd" class="shp0" d="M358.4 460.8C358.4 465.51 354.58 469.33 349.87 469.33L162.13 469.33C157.42 469.33 153.6 465.51 153.6 460.8C153.6 456.09 157.42 452.27 162.13 452.27C190.45 452.27 204.8 432.17 204.8 392.53C204.8 387.82 208.62 384 213.33 384L298.67 384C303.38 384 307.2 387.82 307.2 392.53C307.2 432.17 321.55 452.27 349.87 452.27C354.58 452.27 358.4 456.09 358.4 460.8ZM308.31 452.27C297.8 440.63 291.61 423.3 290.37 401.07L221.64 401.07C220.39 423.3 214.2 440.63 203.7 452.27L308.31 452.27Z" />
		</g>
	</g>
	<g id="Layer">
	</g>
	<g id="Layer">
		<g id="Layer">
			<path id="Layer" fill-rule="evenodd" class="shp1" d="M366.93 85.33L366.93 128C366.93 132.71 363.11 136.53 358.4 136.53L119.47 136.53C114.76 136.53 110.93 132.71 110.93 128L110.93 85.33C110.93 80.62 114.76 76.8 119.47 76.8L358.4 76.8C363.11 76.8 366.93 80.62 366.93 85.33ZM349.87 119.47L349.87 93.87L128 93.87L128 119.47L349.87 119.47Z" />
		</g>
	</g>
	<g id="Layer">
		<g id="Layer">
			<path id="Layer" fill-rule="evenodd" class="shp1" d="M230.4 179.2L230.4 213.33C230.4 218.04 226.58 221.87 221.87 221.87L153.6 221.87C148.89 221.87 145.07 218.04 145.07 213.33L145.07 179.2C145.07 174.49 148.89 170.67 153.6 170.67L221.87 170.67C226.58 170.67 230.4 174.49 230.4 179.2ZM213.33 204.8L213.33 187.73L162.13 187.73L162.13 204.8L213.33 204.8Z" />
		</g>
	</g>
	<g id="Layer">
		<g id="Layer">
			<path id="Layer" fill-rule="evenodd" class="shp1" d="M366.93 85.33L366.93 211.61C366.93 214.31 365.66 216.85 363.5 218.45C361.34 220.07 358.54 220.56 355.95 219.78L319.98 208.99L330.79 245.01C331.56 247.59 331.07 250.39 329.46 252.56C327.85 254.73 325.32 256 322.61 256L119.47 256C114.76 256 110.93 252.18 110.93 247.47L110.93 85.33C110.93 80.62 114.76 76.8 119.47 76.8L358.4 76.8C363.11 76.8 366.93 80.62 366.93 85.33ZM349.87 200.14L349.87 93.87L128 93.87L128 238.93L311.14 238.93L299.08 198.73C298.17 195.71 298.99 192.46 301.22 190.23C303.44 188.02 306.69 187.19 309.7 188.09L349.87 200.14Z" />
		</g>
	</g>
	<g id="Layer">
	</g>
	<g id="Layer">
	</g>
	<g id="Layer">
	</g>
	<g id="Layer">
	</g>
	<g id="Layer">
	</g>
	<g id="Layer">
	</g>
	<g id="Layer">
	</g>
	<g id="Layer">
	</g>
	<g id="Layer">
	</g>
	<g id="Layer">
	</g>
	<g id="Layer">
	</g>
	<g id="Layer">
	</g>
	<g id="Layer">
		<g id="Layer">
			<path id="Layer" fill-rule="evenodd" class="shp0" d="M407.76 272.02L383.62 296.17C382.03 297.77 379.85 298.67 377.59 298.67C375.33 298.67 373.15 297.77 371.56 296.17L350.96 275.56L338.89 287.63C336.77 289.76 333.67 290.59 330.77 289.88C327.86 289.14 325.55 286.93 324.69 284.05L299.09 198.72C298.18 195.71 299 192.45 301.23 190.23C303.45 188.02 306.7 187.19 309.71 188.09L395.04 213.69C397.92 214.56 400.13 216.87 400.86 219.78C401.6 222.69 400.74 225.78 398.62 227.9L387.16 239.36L407.76 259.96C411.09 263.3 411.09 268.69 407.76 272.02ZM389.66 265.99L369.86 246.19C368.03 244.39 367.03 241.95 367.03 239.36C367.03 236.78 368.03 234.36 369.84 232.53L376.45 225.93L319.98 208.99L336.92 265.45L343.08 259.29C345.25 257.13 348.1 256.04 350.96 256.04C353.81 256.04 356.66 257.13 358.84 259.3L377.59 278.07L389.66 265.99Z" />
		</g>
	</g>
	<g id="Layer">
	</g>
	<g id="Layer">
	</g>
</svg>